<?xml version="1.0" encoding="utf-8" standalone="no"?>
<!DOCTYPE svg PUBLIC "-//W3C//DTD SVG 1.1//EN"
  "http://www.w3.org/Graphics/SVG/1.1/DTD/svg11.dtd">
<svg xmlns:xlink="http://www.w3.org/1999/xlink" width="460.8pt" height="345.6pt" viewBox="0 0 460.8 345.6" xmlns="http://www.w3.org/2000/svg" version="1.1">
 <metadata>
  <rdf:RDF xmlns:dc="http://purl.org/dc/elements/1.1/" xmlns:cc="http://creativecommons.org/ns#" xmlns:rdf="http://www.w3.org/1999/02/22-rdf-syntax-ns#">
   <cc:Work>
    <dc:type rdf:resource="http://purl.org/dc/dcmitype/StillImage"/>
    <dc:date>2025-04-08T15:00:11.579903</dc:date>
    <dc:format>image/svg+xml</dc:format>
    <dc:creator>
     <cc:Agent>
      <dc:title>Matplotlib v3.10.1, https://matplotlib.org/</dc:title>
     </cc:Agent>
    </dc:creator>
   </cc:Work>
  </rdf:RDF>
 </metadata>
 <defs>
  <style type="text/css">*{stroke-linejoin: round; stroke-linecap: butt}</style>
 </defs>
 <g id="figure_1">
  <g id="patch_1">
   <path d="M 0 345.6 
L 460.8 345.6 
L 460.8 0 
L 0 0 
z
" style="fill: #ffffff"/>
  </g>
  <g id="axes_1">
   <g id="patch_2">
    <path d="M 44.57 317.72 
L 412.785 317.72 
L 412.785 10.8 
L 44.57 10.8 
z
" style="fill: #ffffff"/>
   </g>
   <g id="patch_3">
    <path d="M 60.276224 317.72 
L 65.759694 317.72 
L 65.759694 315.865317 
L 60.276224 315.865317 
z
" clip-path="url(#p5d85ec5d68)" style="fill: #0000ff"/>
   </g>
   <g id="patch_4">
    <path d="M 75.943281 317.72 
L 81.426751 317.72 
L 81.426751 316.139835 
L 75.943281 316.139835 
z
" clip-path="url(#p5d85ec5d68)" style="fill: #0000ff"/>
   </g>
   <g id="patch_5">
    <path d="M 91.610338 317.72 
L 97.093808 317.72 
L 97.093808 315.884854 
L 91.610338 315.884854 
z
" clip-path="url(#p5d85ec5d68)" style="fill: #0000ff"/>
   </g>
   <g id="patch_6">
    <path d="M 107.277394 317.72 
L 112.760864 317.72 
L 112.760864 309.848925 
L 107.277394 309.848925 
z
" clip-path="url(#p5d85ec5d68)" style="fill: #0000ff"/>
   </g>
   <g id="patch_7">
    <path d="M 122.944451 317.72 
L 128.427921 317.72 
L 128.427921 316.207719 
L 122.944451 316.207719 
z
" clip-path="url(#p5d85ec5d68)" style="fill: #0000ff"/>
   </g>
   <g id="patch_8">
    <path d="M 138.611508 317.72 
L 144.094978 317.72 
L 144.094978 316.149923 
L 138.611508 316.149923 
z
" clip-path="url(#p5d85ec5d68)" style="fill: #0000ff"/>
   </g>
   <g id="patch_9">
    <path d="M 154.278565 317.72 
L 159.762034 317.72 
L 159.762034 316.147649 
L 154.278565 316.147649 
z
" clip-path="url(#p5d85ec5d68)" style="fill: #0000ff"/>
   </g>
   <g id="patch_10">
    <path d="M 169.945621 317.72 
L 175.429091 317.72 
L 175.429091 299.803548 
L 169.945621 299.803548 
z
" clip-path="url(#p5d85ec5d68)" style="fill: #0000ff"/>
   </g>
   <g id="patch_11">
    <path d="M 185.612678 317.72 
L 191.096148 317.72 
L 191.096148 309.847424 
L 185.612678 309.847424 
z
" clip-path="url(#p5d85ec5d68)" style="fill: #0000ff"/>
   </g>
   <g id="patch_12">
    <path d="M 201.279735 317.72 
L 206.763204 317.72 
L 206.763204 273.908897 
L 201.279735 273.908897 
z
" clip-path="url(#p5d85ec5d68)" style="fill: #0000ff"/>
   </g>
   <g id="patch_13">
    <path d="M 216.946791 317.72 
L 222.430261 317.72 
L 222.430261 313.653131 
L 216.946791 313.653131 
z
" clip-path="url(#p5d85ec5d68)" style="fill: #0000ff"/>
   </g>
   <g id="patch_14">
    <path d="M 232.613848 317.72 
L 238.097318 317.72 
L 238.097318 228.80305 
L 232.613848 228.80305 
z
" clip-path="url(#p5d85ec5d68)" style="fill: #0000ff"/>
   </g>
   <g id="patch_15">
    <path d="M 248.280905 317.72 
L 253.764375 317.72 
L 253.764375 309.298959 
L 248.280905 309.298959 
z
" clip-path="url(#p5d85ec5d68)" style="fill: #0000ff"/>
   </g>
   <g id="patch_16">
    <path d="M 263.947961 317.72 
L 269.431431 317.72 
L 269.431431 228.569768 
L 263.947961 228.569768 
z
" clip-path="url(#p5d85ec5d68)" style="fill: #0000ff"/>
   </g>
   <g id="patch_17">
    <path d="M 279.615018 317.72 
L 285.098488 317.72 
L 285.098488 310.302807 
L 279.615018 310.302807 
z
" clip-path="url(#p5d85ec5d68)" style="fill: #0000ff"/>
   </g>
   <g id="patch_18">
    <path d="M 295.282075 317.72 
L 300.765545 317.72 
L 300.765545 202.742773 
L 295.282075 202.742773 
z
" clip-path="url(#p5d85ec5d68)" style="fill: #0000ff"/>
   </g>
   <g id="patch_19">
    <path d="M 310.949131 317.72 
L 316.432601 317.72 
L 316.432601 202.663633 
L 310.949131 202.663633 
z
" clip-path="url(#p5d85ec5d68)" style="fill: #0000ff"/>
   </g>
   <g id="patch_20">
    <path d="M 326.616188 317.72 
L 332.099658 317.72 
L 332.099658 311.42397 
L 326.616188 311.42397 
z
" clip-path="url(#p5d85ec5d68)" style="fill: #0000ff"/>
   </g>
   <g id="patch_21">
    <path d="M 342.283245 317.72 
L 347.766715 317.72 
L 347.766715 311.423616 
L 342.283245 311.423616 
z
" clip-path="url(#p5d85ec5d68)" style="fill: #0000ff"/>
   </g>
   <g id="patch_22">
    <path d="M 357.950302 317.72 
L 363.433771 317.72 
L 363.433771 301.491596 
L 357.950302 301.491596 
z
" clip-path="url(#p5d85ec5d68)" style="fill: #0000ff"/>
   </g>
   <g id="patch_23">
    <path d="M 65.759694 317.72 
L 71.243164 317.72 
L 71.243164 316.217072 
L 65.759694 316.217072 
z
" clip-path="url(#p5d85ec5d68)" style="fill: #ffa500"/>
   </g>
   <g id="patch_24">
    <path d="M 81.426751 317.72 
L 86.910221 317.72 
L 86.910221 316.009261 
L 81.426751 316.009261 
z
" clip-path="url(#p5d85ec5d68)" style="fill: #ffa500"/>
   </g>
   <g id="patch_25">
    <path d="M 97.093808 317.72 
L 102.577277 317.72 
L 102.577277 316.229698 
L 97.093808 316.229698 
z
" clip-path="url(#p5d85ec5d68)" style="fill: #ffa500"/>
   </g>
   <g id="patch_26">
    <path d="M 112.760864 317.72 
L 118.244334 317.72 
L 118.244334 313.274417 
L 112.760864 313.274417 
z
" clip-path="url(#p5d85ec5d68)" style="fill: #ffa500"/>
   </g>
   <g id="patch_27">
    <path d="M 128.427921 317.72 
L 133.911391 317.72 
L 133.911391 316.237313 
L 128.427921 316.237313 
z
" clip-path="url(#p5d85ec5d68)" style="fill: #ffa500"/>
   </g>
   <g id="patch_28">
    <path d="M 144.094978 317.72 
L 149.578448 317.72 
L 149.578448 316.030587 
L 144.094978 316.030587 
z
" clip-path="url(#p5d85ec5d68)" style="fill: #ffa500"/>
   </g>
   <g id="patch_29">
    <path d="M 159.762034 317.72 
L 165.245504 317.72 
L 165.245504 316.211 
L 159.762034 316.211 
z
" clip-path="url(#p5d85ec5d68)" style="fill: #ffa500"/>
   </g>
   <g id="patch_30">
    <path d="M 175.429091 317.72 
L 180.912561 317.72 
L 180.912561 313.274853 
L 175.429091 313.274853 
z
" clip-path="url(#p5d85ec5d68)" style="fill: #ffa500"/>
   </g>
   <g id="patch_31">
    <path d="M 191.096148 317.72 
L 196.579618 317.72 
L 196.579618 316.044794 
L 191.096148 316.044794 
z
" clip-path="url(#p5d85ec5d68)" style="fill: #ffa500"/>
   </g>
   <g id="patch_32">
    <path d="M 206.763204 317.72 
L 212.246674 317.72 
L 212.246674 308.827322 
L 206.763204 308.827322 
z
" clip-path="url(#p5d85ec5d68)" style="fill: #ffa500"/>
   </g>
   <g id="patch_33">
    <path d="M 222.430261 317.72 
L 227.913731 317.72 
L 227.913731 314.753198 
L 222.430261 314.753198 
z
" clip-path="url(#p5d85ec5d68)" style="fill: #ffa500"/>
   </g>
   <g id="patch_34">
    <path d="M 238.097318 317.72 
L 243.580788 317.72 
L 243.580788 228.435362 
L 238.097318 228.435362 
z
" clip-path="url(#p5d85ec5d68)" style="fill: #ffa500"/>
   </g>
   <g id="patch_35">
    <path d="M 253.764375 317.72 
L 259.247844 317.72 
L 259.247844 227.70235 
L 253.764375 227.70235 
z
" clip-path="url(#p5d85ec5d68)" style="fill: #ffa500"/>
   </g>
   <g id="patch_36">
    <path d="M 269.431431 317.72 
L 274.914901 317.72 
L 274.914901 228.426609 
L 269.431431 228.426609 
z
" clip-path="url(#p5d85ec5d68)" style="fill: #ffa500"/>
   </g>
   <g id="patch_37">
    <path d="M 285.098488 317.72 
L 290.581958 317.72 
L 290.581958 228.788334 
L 285.098488 228.788334 
z
" clip-path="url(#p5d85ec5d68)" style="fill: #ffa500"/>
   </g>
   <g id="patch_38">
    <path d="M 300.765545 317.72 
L 306.249014 317.72 
L 306.249014 89.835866 
L 300.765545 89.835866 
z
" clip-path="url(#p5d85ec5d68)" style="fill: #ffa500"/>
   </g>
   <g id="patch_39">
    <path d="M 316.432601 317.72 
L 321.916071 317.72 
L 321.916071 69.94064 
L 316.432601 69.94064 
z
" clip-path="url(#p5d85ec5d68)" style="fill: #ffa500"/>
   </g>
   <g id="patch_40">
    <path d="M 332.099658 317.72 
L 337.583128 317.72 
L 337.583128 308.608667 
L 332.099658 308.608667 
z
" clip-path="url(#p5d85ec5d68)" style="fill: #ffa500"/>
   </g>
   <g id="patch_41">
    <path d="M 347.766715 317.72 
L 353.250185 317.72 
L 353.250185 316.316444 
L 347.766715 316.316444 
z
" clip-path="url(#p5d85ec5d68)" style="fill: #ffa500"/>
   </g>
   <g id="patch_42">
    <path d="M 363.433771 317.72 
L 368.917241 317.72 
L 368.917241 308.592786 
L 363.433771 308.592786 
z
" clip-path="url(#p5d85ec5d68)" style="fill: #ffa500"/>
   </g>
   <g id="patch_43">
    <path d="M 71.243164 317.72 
L 76.726634 317.72 
L 76.726634 316.223406 
L 71.243164 316.223406 
z
" clip-path="url(#p5d85ec5d68)" style="fill: #008000"/>
   </g>
   <g id="patch_44">
    <path d="M 86.910221 317.72 
L 92.393691 317.72 
L 92.393691 315.933473 
L 86.910221 315.933473 
z
" clip-path="url(#p5d85ec5d68)" style="fill: #008000"/>
   </g>
   <g id="patch_45">
    <path d="M 102.577277 317.72 
L 108.060747 317.72 
L 108.060747 316.232966 
L 102.577277 316.232966 
z
" clip-path="url(#p5d85ec5d68)" style="fill: #008000"/>
   </g>
   <g id="patch_46">
    <path d="M 118.244334 317.72 
L 123.727804 317.72 
L 123.727804 313.269854 
L 118.244334 313.269854 
z
" clip-path="url(#p5d85ec5d68)" style="fill: #008000"/>
   </g>
   <g id="patch_47">
    <path d="M 133.911391 317.72 
L 139.394861 317.72 
L 139.394861 316.208799 
L 133.911391 316.208799 
z
" clip-path="url(#p5d85ec5d68)" style="fill: #008000"/>
   </g>
   <g id="patch_48">
    <path d="M 149.578448 317.72 
L 155.061917 317.72 
L 155.061917 316.21473 
L 149.578448 316.21473 
z
" clip-path="url(#p5d85ec5d68)" style="fill: #008000"/>
   </g>
   <g id="patch_49">
    <path d="M 165.245504 317.72 
L 170.728974 317.72 
L 170.728974 316.211251 
L 165.245504 316.211251 
z
" clip-path="url(#p5d85ec5d68)" style="fill: #008000"/>
   </g>
   <g id="patch_50">
    <path d="M 180.912561 317.72 
L 186.396031 317.72 
L 186.396031 280.500194 
L 180.912561 280.500194 
z
" clip-path="url(#p5d85ec5d68)" style="fill: #008000"/>
   </g>
   <g id="patch_51">
    <path d="M 196.579618 317.72 
L 202.063087 317.72 
L 202.063087 289.022429 
L 196.579618 289.022429 
z
" clip-path="url(#p5d85ec5d68)" style="fill: #008000"/>
   </g>
   <g id="patch_52">
    <path d="M 212.246674 317.72 
L 217.730144 317.72 
L 217.730144 282.135363 
L 212.246674 282.135363 
z
" clip-path="url(#p5d85ec5d68)" style="fill: #008000"/>
   </g>
   <g id="patch_53">
    <path d="M 227.913731 317.72 
L 233.397201 317.72 
L 233.397201 290.696576 
L 227.913731 290.696576 
z
" clip-path="url(#p5d85ec5d68)" style="fill: #008000"/>
   </g>
   <g id="patch_54">
    <path d="M 243.580788 317.72 
L 249.064258 317.72 
L 249.064258 224.722732 
L 243.580788 224.722732 
z
" clip-path="url(#p5d85ec5d68)" style="fill: #008000"/>
   </g>
   <g id="patch_55">
    <path d="M 259.247844 317.72 
L 264.731314 317.72 
L 264.731314 241.754367 
L 259.247844 241.754367 
z
" clip-path="url(#p5d85ec5d68)" style="fill: #008000"/>
   </g>
   <g id="patch_56">
    <path d="M 274.914901 317.72 
L 280.398371 317.72 
L 280.398371 228.739403 
L 274.914901 228.739403 
z
" clip-path="url(#p5d85ec5d68)" style="fill: #008000"/>
   </g>
   <g id="patch_57">
    <path d="M 290.581958 317.72 
L 296.065428 317.72 
L 296.065428 244.070352 
L 290.581958 244.070352 
z
" clip-path="url(#p5d85ec5d68)" style="fill: #008000"/>
   </g>
   <g id="patch_58">
    <path d="M 306.249014 317.72 
L 311.732484 317.72 
L 311.732484 202.93549 
L 306.249014 202.93549 
z
" clip-path="url(#p5d85ec5d68)" style="fill: #008000"/>
   </g>
   <g id="patch_59">
    <path d="M 321.916071 317.72 
L 327.399541 317.72 
L 327.399541 203.578116 
L 321.916071 203.578116 
z
" clip-path="url(#p5d85ec5d68)" style="fill: #008000"/>
   </g>
   <g id="patch_60">
    <path d="M 337.583128 317.72 
L 343.066598 317.72 
L 343.066598 312.492958 
L 337.583128 312.492958 
z
" clip-path="url(#p5d85ec5d68)" style="fill: #008000"/>
   </g>
   <g id="patch_61">
    <path d="M 353.250185 317.72 
L 358.733654 317.72 
L 358.733654 311.520544 
L 353.250185 311.520544 
z
" clip-path="url(#p5d85ec5d68)" style="fill: #008000"/>
   </g>
   <g id="patch_62">
    <path d="M 368.917241 317.72 
L 374.400711 317.72 
L 374.400711 308.823656 
L 368.917241 308.823656 
z
" clip-path="url(#p5d85ec5d68)" style="fill: #008000"/>
   </g>
   <g id="matplotlib.axis_1">
    <g id="xtick_1">
     <g id="line2d_1">
      <path d="M 115.110923 317.72 
L 115.110923 10.8 
" clip-path="url(#p5d85ec5d68)" style="fill: none; stroke: #b0b0b0; stroke-width: 0.8; stroke-linecap: square"/>
     </g>
     <g id="line2d_2">
      <defs>
       <path id="md98e18c52c" d="M 0 0 
L 0 3.5 
" style="stroke: #000000; stroke-width: 0.8"/>
      </defs>
      <g>
       <use xlink:href="#md98e18c52c" x="115.110923" y="317.72" style="stroke: #000000; stroke-width: 0.8"/>
      </g>
     </g>
     <g id="text_1">
      <!-- Vec4Add -->
      <g transform="translate(93.389829 332.318437) scale(0.1 -0.1)">
       <defs>
        <path id="DejaVuSans-56" d="M 1831 0 
L 50 4666 
L 709 4666 
L 2188 738 
L 3669 4666 
L 4325 4666 
L 2547 0 
L 1831 0 
z
" transform="scale(0.015625)"/>
        <path id="DejaVuSans-65" d="M 3597 1894 
L 3597 1613 
L 953 1613 
Q 991 1019 1311 708 
Q 1631 397 2203 397 
Q 2534 397 2845 478 
Q 3156 559 3463 722 
L 3463 178 
Q 3153 47 2828 -22 
Q 2503 -91 2169 -91 
Q 1331 -91 842 396 
Q 353 884 353 1716 
Q 353 2575 817 3079 
Q 1281 3584 2069 3584 
Q 2775 3584 3186 3129 
Q 3597 2675 3597 1894 
z
M 3022 2063 
Q 3016 2534 2758 2815 
Q 2500 3097 2075 3097 
Q 1594 3097 1305 2825 
Q 1016 2553 972 2059 
L 3022 2063 
z
" transform="scale(0.015625)"/>
        <path id="DejaVuSans-63" d="M 3122 3366 
L 3122 2828 
Q 2878 2963 2633 3030 
Q 2388 3097 2138 3097 
Q 1578 3097 1268 2742 
Q 959 2388 959 1747 
Q 959 1106 1268 751 
Q 1578 397 2138 397 
Q 2388 397 2633 464 
Q 2878 531 3122 666 
L 3122 134 
Q 2881 22 2623 -34 
Q 2366 -91 2075 -91 
Q 1284 -91 818 406 
Q 353 903 353 1747 
Q 353 2603 823 3093 
Q 1294 3584 2113 3584 
Q 2378 3584 2631 3529 
Q 2884 3475 3122 3366 
z
" transform="scale(0.015625)"/>
        <path id="DejaVuSans-34" d="M 2419 4116 
L 825 1625 
L 2419 1625 
L 2419 4116 
z
M 2253 4666 
L 3047 4666 
L 3047 1625 
L 3713 1625 
L 3713 1100 
L 3047 1100 
L 3047 0 
L 2419 0 
L 2419 1100 
L 313 1100 
L 313 1709 
L 2253 4666 
z
" transform="scale(0.015625)"/>
        <path id="DejaVuSans-41" d="M 2188 4044 
L 1331 1722 
L 3047 1722 
L 2188 4044 
z
M 1831 4666 
L 2547 4666 
L 4325 0 
L 3669 0 
L 3244 1197 
L 1141 1197 
L 716 0 
L 50 0 
L 1831 4666 
z
" transform="scale(0.015625)"/>
        <path id="DejaVuSans-64" d="M 2906 2969 
L 2906 4863 
L 3481 4863 
L 3481 0 
L 2906 0 
L 2906 525 
Q 2725 213 2448 61 
Q 2172 -91 1784 -91 
Q 1150 -91 751 415 
Q 353 922 353 1747 
Q 353 2572 751 3078 
Q 1150 3584 1784 3584 
Q 2172 3584 2448 3432 
Q 2725 3281 2906 2969 
z
M 947 1747 
Q 947 1113 1208 752 
Q 1469 391 1925 391 
Q 2381 391 2643 752 
Q 2906 1113 2906 1747 
Q 2906 2381 2643 2742 
Q 2381 3103 1925 3103 
Q 1469 3103 1208 2742 
Q 947 2381 947 1747 
z
" transform="scale(0.015625)"/>
       </defs>
       <use xlink:href="#DejaVuSans-56"/>
       <use xlink:href="#DejaVuSans-65" transform="translate(60.658203 0)"/>
       <use xlink:href="#DejaVuSans-63" transform="translate(122.181641 0)"/>
       <use xlink:href="#DejaVuSans-34" transform="translate(177.162109 0)"/>
       <use xlink:href="#DejaVuSans-41" transform="translate(240.785156 0)"/>
       <use xlink:href="#DejaVuSans-64" transform="translate(307.443359 0)"/>
       <use xlink:href="#DejaVuSans-64" transform="translate(370.919922 0)"/>
      </g>
     </g>
    </g>
    <g id="xtick_2">
     <g id="line2d_3">
      <path d="M 130.777979 317.72 
L 130.777979 10.8 
" clip-path="url(#p5d85ec5d68)" style="fill: none; stroke: #b0b0b0; stroke-width: 0.8; stroke-linecap: square"/>
     </g>
     <g id="line2d_4">
      <g>
       <use xlink:href="#md98e18c52c" x="130.777979" y="317.72" style="stroke: #000000; stroke-width: 0.8"/>
      </g>
     </g>
     <g id="text_2">
      <!-- Vec4Sub -->
      <g transform="translate(109.220948 332.318437) scale(0.1 -0.1)">
       <defs>
        <path id="DejaVuSans-53" d="M 3425 4513 
L 3425 3897 
Q 3066 4069 2747 4153 
Q 2428 4238 2131 4238 
Q 1616 4238 1336 4038 
Q 1056 3838 1056 3469 
Q 1056 3159 1242 3001 
Q 1428 2844 1947 2747 
L 2328 2669 
Q 3034 2534 3370 2195 
Q 3706 1856 3706 1288 
Q 3706 609 3251 259 
Q 2797 -91 1919 -91 
Q 1588 -91 1214 -16 
Q 841 59 441 206 
L 441 856 
Q 825 641 1194 531 
Q 1563 422 1919 422 
Q 2459 422 2753 634 
Q 3047 847 3047 1241 
Q 3047 1584 2836 1778 
Q 2625 1972 2144 2069 
L 1759 2144 
Q 1053 2284 737 2584 
Q 422 2884 422 3419 
Q 422 4038 858 4394 
Q 1294 4750 2059 4750 
Q 2388 4750 2728 4690 
Q 3069 4631 3425 4513 
z
" transform="scale(0.015625)"/>
        <path id="DejaVuSans-75" d="M 544 1381 
L 544 3500 
L 1119 3500 
L 1119 1403 
Q 1119 906 1312 657 
Q 1506 409 1894 409 
Q 2359 409 2629 706 
Q 2900 1003 2900 1516 
L 2900 3500 
L 3475 3500 
L 3475 0 
L 2900 0 
L 2900 538 
Q 2691 219 2414 64 
Q 2138 -91 1772 -91 
Q 1169 -91 856 284 
Q 544 659 544 1381 
z
M 1991 3584 
L 1991 3584 
z
" transform="scale(0.015625)"/>
        <path id="DejaVuSans-62" d="M 3116 1747 
Q 3116 2381 2855 2742 
Q 2594 3103 2138 3103 
Q 1681 3103 1420 2742 
Q 1159 2381 1159 1747 
Q 1159 1113 1420 752 
Q 1681 391 2138 391 
Q 2594 391 2855 752 
Q 3116 1113 3116 1747 
z
M 1159 2969 
Q 1341 3281 1617 3432 
Q 1894 3584 2278 3584 
Q 2916 3584 3314 3078 
Q 3713 2572 3713 1747 
Q 3713 922 3314 415 
Q 2916 -91 2278 -91 
Q 1894 -91 1617 61 
Q 1341 213 1159 525 
L 1159 0 
L 581 0 
L 581 4863 
L 1159 4863 
L 1159 2969 
z
" transform="scale(0.015625)"/>
       </defs>
       <use xlink:href="#DejaVuSans-56"/>
       <use xlink:href="#DejaVuSans-65" transform="translate(60.658203 0)"/>
       <use xlink:href="#DejaVuSans-63" transform="translate(122.181641 0)"/>
       <use xlink:href="#DejaVuSans-34" transform="translate(177.162109 0)"/>
       <use xlink:href="#DejaVuSans-53" transform="translate(240.785156 0)"/>
       <use xlink:href="#DejaVuSans-75" transform="translate(304.261719 0)"/>
       <use xlink:href="#DejaVuSans-62" transform="translate(367.640625 0)"/>
      </g>
     </g>
    </g>
    <g id="xtick_3">
     <g id="line2d_5">
      <path d="M 146.445036 317.72 
L 146.445036 10.8 
" clip-path="url(#p5d85ec5d68)" style="fill: none; stroke: #b0b0b0; stroke-width: 0.8; stroke-linecap: square"/>
     </g>
     <g id="line2d_6">
      <g>
       <use xlink:href="#md98e18c52c" x="146.445036" y="317.72" style="stroke: #000000; stroke-width: 0.8"/>
      </g>
     </g>
     <g id="text_3">
      <!-- Vec4Mul -->
      <g transform="translate(125.533317 332.318437) scale(0.1 -0.1)">
       <defs>
        <path id="DejaVuSans-4d" d="M 628 4666 
L 1569 4666 
L 2759 1491 
L 3956 4666 
L 4897 4666 
L 4897 0 
L 4281 0 
L 4281 4097 
L 3078 897 
L 2444 897 
L 1241 4097 
L 1241 0 
L 628 0 
L 628 4666 
z
" transform="scale(0.015625)"/>
        <path id="DejaVuSans-6c" d="M 603 4863 
L 1178 4863 
L 1178 0 
L 603 0 
L 603 4863 
z
" transform="scale(0.015625)"/>
       </defs>
       <use xlink:href="#DejaVuSans-56"/>
       <use xlink:href="#DejaVuSans-65" transform="translate(60.658203 0)"/>
       <use xlink:href="#DejaVuSans-63" transform="translate(122.181641 0)"/>
       <use xlink:href="#DejaVuSans-34" transform="translate(177.162109 0)"/>
       <use xlink:href="#DejaVuSans-4d" transform="translate(240.785156 0)"/>
       <use xlink:href="#DejaVuSans-75" transform="translate(327.064453 0)"/>
       <use xlink:href="#DejaVuSans-6c" transform="translate(390.443359 0)"/>
      </g>
     </g>
    </g>
    <g id="xtick_4">
     <g id="line2d_7">
      <path d="M 162.112093 317.72 
L 162.112093 10.8 
" clip-path="url(#p5d85ec5d68)" style="fill: none; stroke: #b0b0b0; stroke-width: 0.8; stroke-linecap: square"/>
     </g>
     <g id="line2d_8">
      <g>
       <use xlink:href="#md98e18c52c" x="162.112093" y="317.72" style="stroke: #000000; stroke-width: 0.8"/>
      </g>
     </g>
     <g id="text_4">
      <!-- Vec4Div -->
      <g transform="translate(141.873812 332.318437) scale(0.1 -0.1)">
       <defs>
        <path id="DejaVuSans-44" d="M 1259 4147 
L 1259 519 
L 2022 519 
Q 2988 519 3436 956 
Q 3884 1394 3884 2338 
Q 3884 3275 3436 3711 
Q 2988 4147 2022 4147 
L 1259 4147 
z
M 628 4666 
L 1925 4666 
Q 3281 4666 3915 4102 
Q 4550 3538 4550 2338 
Q 4550 1131 3912 565 
Q 3275 0 1925 0 
L 628 0 
L 628 4666 
z
" transform="scale(0.015625)"/>
        <path id="DejaVuSans-69" d="M 603 3500 
L 1178 3500 
L 1178 0 
L 603 0 
L 603 3500 
z
M 603 4863 
L 1178 4863 
L 1178 4134 
L 603 4134 
L 603 4863 
z
" transform="scale(0.015625)"/>
        <path id="DejaVuSans-76" d="M 191 3500 
L 800 3500 
L 1894 563 
L 2988 3500 
L 3597 3500 
L 2284 0 
L 1503 0 
L 191 3500 
z
" transform="scale(0.015625)"/>
       </defs>
       <use xlink:href="#DejaVuSans-56"/>
       <use xlink:href="#DejaVuSans-65" transform="translate(60.658203 0)"/>
       <use xlink:href="#DejaVuSans-63" transform="translate(122.181641 0)"/>
       <use xlink:href="#DejaVuSans-34" transform="translate(177.162109 0)"/>
       <use xlink:href="#DejaVuSans-44" transform="translate(240.785156 0)"/>
       <use xlink:href="#DejaVuSans-69" transform="translate(317.787109 0)"/>
       <use xlink:href="#DejaVuSans-76" transform="translate(345.570312 0)"/>
      </g>
     </g>
    </g>
    <g id="xtick_5">
     <g id="line2d_9">
      <path d="M 177.77915 317.72 
L 177.77915 10.8 
" clip-path="url(#p5d85ec5d68)" style="fill: none; stroke: #b0b0b0; stroke-width: 0.8; stroke-linecap: square"/>
     </g>
     <g id="line2d_10">
      <g>
       <use xlink:href="#md98e18c52c" x="177.77915" y="317.72" style="stroke: #000000; stroke-width: 0.8"/>
      </g>
     </g>
     <g id="text_5">
      <!-- Vec4Abs -->
      <g transform="translate(156.540087 332.318437) scale(0.1 -0.1)">
       <defs>
        <path id="DejaVuSans-73" d="M 2834 3397 
L 2834 2853 
Q 2591 2978 2328 3040 
Q 2066 3103 1784 3103 
Q 1356 3103 1142 2972 
Q 928 2841 928 2578 
Q 928 2378 1081 2264 
Q 1234 2150 1697 2047 
L 1894 2003 
Q 2506 1872 2764 1633 
Q 3022 1394 3022 966 
Q 3022 478 2636 193 
Q 2250 -91 1575 -91 
Q 1294 -91 989 -36 
Q 684 19 347 128 
L 347 722 
Q 666 556 975 473 
Q 1284 391 1588 391 
Q 1994 391 2212 530 
Q 2431 669 2431 922 
Q 2431 1156 2273 1281 
Q 2116 1406 1581 1522 
L 1381 1569 
Q 847 1681 609 1914 
Q 372 2147 372 2553 
Q 372 3047 722 3315 
Q 1072 3584 1716 3584 
Q 2034 3584 2315 3537 
Q 2597 3491 2834 3397 
z
" transform="scale(0.015625)"/>
       </defs>
       <use xlink:href="#DejaVuSans-56"/>
       <use xlink:href="#DejaVuSans-65" transform="translate(60.658203 0)"/>
       <use xlink:href="#DejaVuSans-63" transform="translate(122.181641 0)"/>
       <use xlink:href="#DejaVuSans-34" transform="translate(177.162109 0)"/>
       <use xlink:href="#DejaVuSans-41" transform="translate(240.785156 0)"/>
       <use xlink:href="#DejaVuSans-62" transform="translate(309.193359 0)"/>
       <use xlink:href="#DejaVuSans-73" transform="translate(372.669922 0)"/>
      </g>
     </g>
    </g>
    <g id="xtick_6">
     <g id="line2d_11">
      <path d="M 193.446206 317.72 
L 193.446206 10.8 
" clip-path="url(#p5d85ec5d68)" style="fill: none; stroke: #b0b0b0; stroke-width: 0.8; stroke-linecap: square"/>
     </g>
     <g id="line2d_12">
      <g>
       <use xlink:href="#md98e18c52c" x="193.446206" y="317.72" style="stroke: #000000; stroke-width: 0.8"/>
      </g>
     </g>
     <g id="text_6">
      <!-- Vec4Min -->
      <g transform="translate(172.534488 332.318437) scale(0.1 -0.1)">
       <defs>
        <path id="DejaVuSans-6e" d="M 3513 2113 
L 3513 0 
L 2938 0 
L 2938 2094 
Q 2938 2591 2744 2837 
Q 2550 3084 2163 3084 
Q 1697 3084 1428 2787 
Q 1159 2491 1159 1978 
L 1159 0 
L 581 0 
L 581 3500 
L 1159 3500 
L 1159 2956 
Q 1366 3272 1645 3428 
Q 1925 3584 2291 3584 
Q 2894 3584 3203 3211 
Q 3513 2838 3513 2113 
z
" transform="scale(0.015625)"/>
       </defs>
       <use xlink:href="#DejaVuSans-56"/>
       <use xlink:href="#DejaVuSans-65" transform="translate(60.658203 0)"/>
       <use xlink:href="#DejaVuSans-63" transform="translate(122.181641 0)"/>
       <use xlink:href="#DejaVuSans-34" transform="translate(177.162109 0)"/>
       <use xlink:href="#DejaVuSans-4d" transform="translate(240.785156 0)"/>
       <use xlink:href="#DejaVuSans-69" transform="translate(327.064453 0)"/>
       <use xlink:href="#DejaVuSans-6e" transform="translate(354.847656 0)"/>
      </g>
     </g>
    </g>
    <g id="xtick_7">
     <g id="line2d_13">
      <path d="M 209.113263 317.72 
L 209.113263 10.8 
" clip-path="url(#p5d85ec5d68)" style="fill: none; stroke: #b0b0b0; stroke-width: 0.8; stroke-linecap: square"/>
     </g>
     <g id="line2d_14">
      <g>
       <use xlink:href="#md98e18c52c" x="209.113263" y="317.72" style="stroke: #000000; stroke-width: 0.8"/>
      </g>
     </g>
     <g id="text_7">
      <!-- Vec4Max -->
      <g transform="translate(186.735919 332.318437) scale(0.1 -0.1)">
       <defs>
        <path id="DejaVuSans-61" d="M 2194 1759 
Q 1497 1759 1228 1600 
Q 959 1441 959 1056 
Q 959 750 1161 570 
Q 1363 391 1709 391 
Q 2188 391 2477 730 
Q 2766 1069 2766 1631 
L 2766 1759 
L 2194 1759 
z
M 3341 1997 
L 3341 0 
L 2766 0 
L 2766 531 
Q 2569 213 2275 61 
Q 1981 -91 1556 -91 
Q 1019 -91 701 211 
Q 384 513 384 1019 
Q 384 1609 779 1909 
Q 1175 2209 1959 2209 
L 2766 2209 
L 2766 2266 
Q 2766 2663 2505 2880 
Q 2244 3097 1772 3097 
Q 1472 3097 1187 3025 
Q 903 2953 641 2809 
L 641 3341 
Q 956 3463 1253 3523 
Q 1550 3584 1831 3584 
Q 2591 3584 2966 3190 
Q 3341 2797 3341 1997 
z
" transform="scale(0.015625)"/>
        <path id="DejaVuSans-78" d="M 3513 3500 
L 2247 1797 
L 3578 0 
L 2900 0 
L 1881 1375 
L 863 0 
L 184 0 
L 1544 1831 
L 300 3500 
L 978 3500 
L 1906 2253 
L 2834 3500 
L 3513 3500 
z
" transform="scale(0.015625)"/>
       </defs>
       <use xlink:href="#DejaVuSans-56"/>
       <use xlink:href="#DejaVuSans-65" transform="translate(60.658203 0)"/>
       <use xlink:href="#DejaVuSans-63" transform="translate(122.181641 0)"/>
       <use xlink:href="#DejaVuSans-34" transform="translate(177.162109 0)"/>
       <use xlink:href="#DejaVuSans-4d" transform="translate(240.785156 0)"/>
       <use xlink:href="#DejaVuSans-61" transform="translate(327.064453 0)"/>
       <use xlink:href="#DejaVuSans-78" transform="translate(388.34375 0)"/>
      </g>
     </g>
    </g>
    <g id="xtick_8">
     <g id="line2d_15">
      <path d="M 224.78032 317.72 
L 224.78032 10.8 
" clip-path="url(#p5d85ec5d68)" style="fill: none; stroke: #b0b0b0; stroke-width: 0.8; stroke-linecap: square"/>
     </g>
     <g id="line2d_16">
      <g>
       <use xlink:href="#md98e18c52c" x="224.78032" y="317.72" style="stroke: #000000; stroke-width: 0.8"/>
      </g>
     </g>
     <g id="text_8">
      <!-- Vec4Sqrt -->
      <g transform="translate(202.376413 332.318437) scale(0.1 -0.1)">
       <defs>
        <path id="DejaVuSans-71" d="M 947 1747 
Q 947 1113 1208 752 
Q 1469 391 1925 391 
Q 2381 391 2643 752 
Q 2906 1113 2906 1747 
Q 2906 2381 2643 2742 
Q 2381 3103 1925 3103 
Q 1469 3103 1208 2742 
Q 947 2381 947 1747 
z
M 2906 525 
Q 2725 213 2448 61 
Q 2172 -91 1784 -91 
Q 1150 -91 751 415 
Q 353 922 353 1747 
Q 353 2572 751 3078 
Q 1150 3584 1784 3584 
Q 2172 3584 2448 3432 
Q 2725 3281 2906 2969 
L 2906 3500 
L 3481 3500 
L 3481 -1331 
L 2906 -1331 
L 2906 525 
z
" transform="scale(0.015625)"/>
        <path id="DejaVuSans-72" d="M 2631 2963 
Q 2534 3019 2420 3045 
Q 2306 3072 2169 3072 
Q 1681 3072 1420 2755 
Q 1159 2438 1159 1844 
L 1159 0 
L 581 0 
L 581 3500 
L 1159 3500 
L 1159 2956 
Q 1341 3275 1631 3429 
Q 1922 3584 2338 3584 
Q 2397 3584 2469 3576 
Q 2541 3569 2628 3553 
L 2631 2963 
z
" transform="scale(0.015625)"/>
        <path id="DejaVuSans-74" d="M 1172 4494 
L 1172 3500 
L 2356 3500 
L 2356 3053 
L 1172 3053 
L 1172 1153 
Q 1172 725 1289 603 
Q 1406 481 1766 481 
L 2356 481 
L 2356 0 
L 1766 0 
Q 1100 0 847 248 
Q 594 497 594 1153 
L 594 3053 
L 172 3053 
L 172 3500 
L 594 3500 
L 594 4494 
L 1172 4494 
z
" transform="scale(0.015625)"/>
       </defs>
       <use xlink:href="#DejaVuSans-56"/>
       <use xlink:href="#DejaVuSans-65" transform="translate(60.658203 0)"/>
       <use xlink:href="#DejaVuSans-63" transform="translate(122.181641 0)"/>
       <use xlink:href="#DejaVuSans-34" transform="translate(177.162109 0)"/>
       <use xlink:href="#DejaVuSans-53" transform="translate(240.785156 0)"/>
       <use xlink:href="#DejaVuSans-71" transform="translate(304.261719 0)"/>
       <use xlink:href="#DejaVuSans-72" transform="translate(367.738281 0)"/>
       <use xlink:href="#DejaVuSans-74" transform="translate(408.851562 0)"/>
      </g>
     </g>
    </g>
    <g id="xtick_9">
     <g id="line2d_17">
      <path d="M 240.447376 317.72 
L 240.447376 10.8 
" clip-path="url(#p5d85ec5d68)" style="fill: none; stroke: #b0b0b0; stroke-width: 0.8; stroke-linecap: square"/>
     </g>
     <g id="line2d_18">
      <g>
       <use xlink:href="#md98e18c52c" x="240.447376" y="317.72" style="stroke: #000000; stroke-width: 0.8"/>
      </g>
     </g>
     <g id="text_9">
      <!-- Vec4SqrtLowp -->
      <g transform="translate(205.022376 332.318437) scale(0.1 -0.1)">
       <defs>
        <path id="DejaVuSans-4c" d="M 628 4666 
L 1259 4666 
L 1259 531 
L 3531 531 
L 3531 0 
L 628 0 
L 628 4666 
z
" transform="scale(0.015625)"/>
        <path id="DejaVuSans-6f" d="M 1959 3097 
Q 1497 3097 1228 2736 
Q 959 2375 959 1747 
Q 959 1119 1226 758 
Q 1494 397 1959 397 
Q 2419 397 2687 759 
Q 2956 1122 2956 1747 
Q 2956 2369 2687 2733 
Q 2419 3097 1959 3097 
z
M 1959 3584 
Q 2709 3584 3137 3096 
Q 3566 2609 3566 1747 
Q 3566 888 3137 398 
Q 2709 -91 1959 -91 
Q 1206 -91 779 398 
Q 353 888 353 1747 
Q 353 2609 779 3096 
Q 1206 3584 1959 3584 
z
" transform="scale(0.015625)"/>
        <path id="DejaVuSans-77" d="M 269 3500 
L 844 3500 
L 1563 769 
L 2278 3500 
L 2956 3500 
L 3675 769 
L 4391 3500 
L 4966 3500 
L 4050 0 
L 3372 0 
L 2619 2869 
L 1863 0 
L 1184 0 
L 269 3500 
z
" transform="scale(0.015625)"/>
        <path id="DejaVuSans-70" d="M 1159 525 
L 1159 -1331 
L 581 -1331 
L 581 3500 
L 1159 3500 
L 1159 2969 
Q 1341 3281 1617 3432 
Q 1894 3584 2278 3584 
Q 2916 3584 3314 3078 
Q 3713 2572 3713 1747 
Q 3713 922 3314 415 
Q 2916 -91 2278 -91 
Q 1894 -91 1617 61 
Q 1341 213 1159 525 
z
M 3116 1747 
Q 3116 2381 2855 2742 
Q 2594 3103 2138 3103 
Q 1681 3103 1420 2742 
Q 1159 2381 1159 1747 
Q 1159 1113 1420 752 
Q 1681 391 2138 391 
Q 2594 391 2855 752 
Q 3116 1113 3116 1747 
z
" transform="scale(0.015625)"/>
       </defs>
       <use xlink:href="#DejaVuSans-56"/>
       <use xlink:href="#DejaVuSans-65" transform="translate(60.658203 0)"/>
       <use xlink:href="#DejaVuSans-63" transform="translate(122.181641 0)"/>
       <use xlink:href="#DejaVuSans-34" transform="translate(177.162109 0)"/>
       <use xlink:href="#DejaVuSans-53" transform="translate(240.785156 0)"/>
       <use xlink:href="#DejaVuSans-71" transform="translate(304.261719 0)"/>
       <use xlink:href="#DejaVuSans-72" transform="translate(367.738281 0)"/>
       <use xlink:href="#DejaVuSans-74" transform="translate(408.851562 0)"/>
       <use xlink:href="#DejaVuSans-4c" transform="translate(448.060547 0)"/>
       <use xlink:href="#DejaVuSans-6f" transform="translate(502.023438 0)"/>
       <use xlink:href="#DejaVuSans-77" transform="translate(563.205078 0)"/>
       <use xlink:href="#DejaVuSans-70" transform="translate(644.992188 0)"/>
      </g>
     </g>
    </g>
    <g id="xtick_10">
     <g id="line2d_19">
      <path d="M 256.114433 317.72 
L 256.114433 10.8 
" clip-path="url(#p5d85ec5d68)" style="fill: none; stroke: #b0b0b0; stroke-width: 0.8; stroke-linecap: square"/>
     </g>
     <g id="line2d_20">
      <g>
       <use xlink:href="#md98e18c52c" x="256.114433" y="317.72" style="stroke: #000000; stroke-width: 0.8"/>
      </g>
     </g>
     <g id="text_10">
      <!-- Vec4InvSqrt -->
      <g transform="translate(226.107402 332.318437) scale(0.1 -0.1)">
       <defs>
        <path id="DejaVuSans-49" d="M 628 4666 
L 1259 4666 
L 1259 0 
L 628 0 
L 628 4666 
z
" transform="scale(0.015625)"/>
       </defs>
       <use xlink:href="#DejaVuSans-56"/>
       <use xlink:href="#DejaVuSans-65" transform="translate(60.658203 0)"/>
       <use xlink:href="#DejaVuSans-63" transform="translate(122.181641 0)"/>
       <use xlink:href="#DejaVuSans-34" transform="translate(177.162109 0)"/>
       <use xlink:href="#DejaVuSans-49" transform="translate(240.785156 0)"/>
       <use xlink:href="#DejaVuSans-6e" transform="translate(270.277344 0)"/>
       <use xlink:href="#DejaVuSans-76" transform="translate(333.65625 0)"/>
       <use xlink:href="#DejaVuSans-53" transform="translate(392.835938 0)"/>
       <use xlink:href="#DejaVuSans-71" transform="translate(456.3125 0)"/>
       <use xlink:href="#DejaVuSans-72" transform="translate(519.789062 0)"/>
       <use xlink:href="#DejaVuSans-74" transform="translate(560.902344 0)"/>
      </g>
     </g>
    </g>
    <g id="xtick_11">
     <g id="line2d_21">
      <path d="M 271.78149 317.72 
L 271.78149 10.8 
" clip-path="url(#p5d85ec5d68)" style="fill: none; stroke: #b0b0b0; stroke-width: 0.8; stroke-linecap: square"/>
     </g>
     <g id="line2d_22">
      <g>
       <use xlink:href="#md98e18c52c" x="271.78149" y="317.72" style="stroke: #000000; stroke-width: 0.8"/>
      </g>
     </g>
     <g id="text_11">
      <!-- Vec4InvSqrtLowp -->
      <g transform="translate(228.753365 332.318437) scale(0.1 -0.1)">
       <use xlink:href="#DejaVuSans-56"/>
       <use xlink:href="#DejaVuSans-65" transform="translate(60.658203 0)"/>
       <use xlink:href="#DejaVuSans-63" transform="translate(122.181641 0)"/>
       <use xlink:href="#DejaVuSans-34" transform="translate(177.162109 0)"/>
       <use xlink:href="#DejaVuSans-49" transform="translate(240.785156 0)"/>
       <use xlink:href="#DejaVuSans-6e" transform="translate(270.277344 0)"/>
       <use xlink:href="#DejaVuSans-76" transform="translate(333.65625 0)"/>
       <use xlink:href="#DejaVuSans-53" transform="translate(392.835938 0)"/>
       <use xlink:href="#DejaVuSans-71" transform="translate(456.3125 0)"/>
       <use xlink:href="#DejaVuSans-72" transform="translate(519.789062 0)"/>
       <use xlink:href="#DejaVuSans-74" transform="translate(560.902344 0)"/>
       <use xlink:href="#DejaVuSans-4c" transform="translate(600.111328 0)"/>
       <use xlink:href="#DejaVuSans-6f" transform="translate(654.074219 0)"/>
       <use xlink:href="#DejaVuSans-77" transform="translate(715.255859 0)"/>
       <use xlink:href="#DejaVuSans-70" transform="translate(797.042969 0)"/>
      </g>
     </g>
    </g>
    <g id="xtick_12">
     <g id="line2d_23">
      <path d="M 287.448546 317.72 
L 287.448546 10.8 
" clip-path="url(#p5d85ec5d68)" style="fill: none; stroke: #b0b0b0; stroke-width: 0.8; stroke-linecap: square"/>
     </g>
     <g id="line2d_24">
      <g>
       <use xlink:href="#md98e18c52c" x="287.448546" y="317.72" style="stroke: #000000; stroke-width: 0.8"/>
      </g>
     </g>
     <g id="text_12">
      <!-- Vec4Sin -->
      <g transform="translate(267.676671 332.318437) scale(0.1 -0.1)">
       <use xlink:href="#DejaVuSans-56"/>
       <use xlink:href="#DejaVuSans-65" transform="translate(60.658203 0)"/>
       <use xlink:href="#DejaVuSans-63" transform="translate(122.181641 0)"/>
       <use xlink:href="#DejaVuSans-34" transform="translate(177.162109 0)"/>
       <use xlink:href="#DejaVuSans-53" transform="translate(240.785156 0)"/>
       <use xlink:href="#DejaVuSans-69" transform="translate(304.261719 0)"/>
       <use xlink:href="#DejaVuSans-6e" transform="translate(332.044922 0)"/>
      </g>
     </g>
    </g>
    <g id="xtick_13">
     <g id="line2d_25">
      <path d="M 303.115603 317.72 
L 303.115603 10.8 
" clip-path="url(#p5d85ec5d68)" style="fill: none; stroke: #b0b0b0; stroke-width: 0.8; stroke-linecap: square"/>
     </g>
     <g id="line2d_26">
      <g>
       <use xlink:href="#md98e18c52c" x="303.115603" y="317.72" style="stroke: #000000; stroke-width: 0.8"/>
      </g>
     </g>
     <g id="text_13">
      <!-- Vec4SinLowp -->
      <g transform="translate(270.322634 332.318437) scale(0.1 -0.1)">
       <use xlink:href="#DejaVuSans-56"/>
       <use xlink:href="#DejaVuSans-65" transform="translate(60.658203 0)"/>
       <use xlink:href="#DejaVuSans-63" transform="translate(122.181641 0)"/>
       <use xlink:href="#DejaVuSans-34" transform="translate(177.162109 0)"/>
       <use xlink:href="#DejaVuSans-53" transform="translate(240.785156 0)"/>
       <use xlink:href="#DejaVuSans-69" transform="translate(304.261719 0)"/>
       <use xlink:href="#DejaVuSans-6e" transform="translate(332.044922 0)"/>
       <use xlink:href="#DejaVuSans-4c" transform="translate(395.423828 0)"/>
       <use xlink:href="#DejaVuSans-6f" transform="translate(449.386719 0)"/>
       <use xlink:href="#DejaVuSans-77" transform="translate(510.568359 0)"/>
       <use xlink:href="#DejaVuSans-70" transform="translate(592.355469 0)"/>
      </g>
     </g>
    </g>
    <g id="xtick_14">
     <g id="line2d_27">
      <path d="M 318.78266 317.72 
L 318.78266 10.8 
" clip-path="url(#p5d85ec5d68)" style="fill: none; stroke: #b0b0b0; stroke-width: 0.8; stroke-linecap: square"/>
     </g>
     <g id="line2d_28">
      <g>
       <use xlink:href="#md98e18c52c" x="318.78266" y="317.72" style="stroke: #000000; stroke-width: 0.8"/>
      </g>
     </g>
     <g id="text_14">
      <!-- Vec4Cos -->
      <g transform="translate(297.587347 332.318437) scale(0.1 -0.1)">
       <defs>
        <path id="DejaVuSans-43" d="M 4122 4306 
L 4122 3641 
Q 3803 3938 3442 4084 
Q 3081 4231 2675 4231 
Q 1875 4231 1450 3742 
Q 1025 3253 1025 2328 
Q 1025 1406 1450 917 
Q 1875 428 2675 428 
Q 3081 428 3442 575 
Q 3803 722 4122 1019 
L 4122 359 
Q 3791 134 3420 21 
Q 3050 -91 2638 -91 
Q 1578 -91 968 557 
Q 359 1206 359 2328 
Q 359 3453 968 4101 
Q 1578 4750 2638 4750 
Q 3056 4750 3426 4639 
Q 3797 4528 4122 4306 
z
" transform="scale(0.015625)"/>
       </defs>
       <use xlink:href="#DejaVuSans-56"/>
       <use xlink:href="#DejaVuSans-65" transform="translate(60.658203 0)"/>
       <use xlink:href="#DejaVuSans-63" transform="translate(122.181641 0)"/>
       <use xlink:href="#DejaVuSans-34" transform="translate(177.162109 0)"/>
       <use xlink:href="#DejaVuSans-43" transform="translate(240.785156 0)"/>
       <use xlink:href="#DejaVuSans-6f" transform="translate(310.609375 0)"/>
       <use xlink:href="#DejaVuSans-73" transform="translate(371.791016 0)"/>
      </g>
     </g>
    </g>
    <g id="xtick_15">
     <g id="line2d_29">
      <path d="M 334.449717 317.72 
L 334.449717 10.8 
" clip-path="url(#p5d85ec5d68)" style="fill: none; stroke: #b0b0b0; stroke-width: 0.8; stroke-linecap: square"/>
     </g>
     <g id="line2d_30">
      <g>
       <use xlink:href="#md98e18c52c" x="334.449717" y="317.72" style="stroke: #000000; stroke-width: 0.8"/>
      </g>
     </g>
     <g id="text_15">
      <!-- Vec4CosLowp -->
      <g transform="translate(300.23331 332.318437) scale(0.1 -0.1)">
       <use xlink:href="#DejaVuSans-56"/>
       <use xlink:href="#DejaVuSans-65" transform="translate(60.658203 0)"/>
       <use xlink:href="#DejaVuSans-63" transform="translate(122.181641 0)"/>
       <use xlink:href="#DejaVuSans-34" transform="translate(177.162109 0)"/>
       <use xlink:href="#DejaVuSans-43" transform="translate(240.785156 0)"/>
       <use xlink:href="#DejaVuSans-6f" transform="translate(310.609375 0)"/>
       <use xlink:href="#DejaVuSans-73" transform="translate(371.791016 0)"/>
       <use xlink:href="#DejaVuSans-4c" transform="translate(423.890625 0)"/>
       <use xlink:href="#DejaVuSans-6f" transform="translate(477.853516 0)"/>
       <use xlink:href="#DejaVuSans-77" transform="translate(539.035156 0)"/>
       <use xlink:href="#DejaVuSans-70" transform="translate(620.822266 0)"/>
      </g>
     </g>
    </g>
    <g id="xtick_16">
     <g id="line2d_31">
      <path d="M 350.116773 317.72 
L 350.116773 10.8 
" clip-path="url(#p5d85ec5d68)" style="fill: none; stroke: #b0b0b0; stroke-width: 0.8; stroke-linecap: square"/>
     </g>
     <g id="line2d_32">
      <g>
       <use xlink:href="#md98e18c52c" x="350.116773" y="317.72" style="stroke: #000000; stroke-width: 0.8"/>
      </g>
     </g>
     <g id="text_16">
      <!-- Vec4Tan -->
      <g transform="translate(329.615211 332.318437) scale(0.1 -0.1)">
       <defs>
        <path id="DejaVuSans-54" d="M -19 4666 
L 3928 4666 
L 3928 4134 
L 2272 4134 
L 2272 0 
L 1638 0 
L 1638 4134 
L -19 4134 
L -19 4666 
z
" transform="scale(0.015625)"/>
       </defs>
       <use xlink:href="#DejaVuSans-56"/>
       <use xlink:href="#DejaVuSans-65" transform="translate(60.658203 0)"/>
       <use xlink:href="#DejaVuSans-63" transform="translate(122.181641 0)"/>
       <use xlink:href="#DejaVuSans-34" transform="translate(177.162109 0)"/>
       <use xlink:href="#DejaVuSans-54" transform="translate(240.785156 0)"/>
       <use xlink:href="#DejaVuSans-61" transform="translate(285.369141 0)"/>
       <use xlink:href="#DejaVuSans-6e" transform="translate(346.648438 0)"/>
      </g>
     </g>
    </g>
    <g id="xtick_17">
     <g id="line2d_33">
      <path d="M 365.78383 317.72 
L 365.78383 10.8 
" clip-path="url(#p5d85ec5d68)" style="fill: none; stroke: #b0b0b0; stroke-width: 0.8; stroke-linecap: square"/>
     </g>
     <g id="line2d_34">
      <g>
       <use xlink:href="#md98e18c52c" x="365.78383" y="317.72" style="stroke: #000000; stroke-width: 0.8"/>
      </g>
     </g>
     <g id="text_17">
      <!-- Vec4Cot -->
      <g transform="translate(345.233049 332.318437) scale(0.1 -0.1)">
       <use xlink:href="#DejaVuSans-56"/>
       <use xlink:href="#DejaVuSans-65" transform="translate(60.658203 0)"/>
       <use xlink:href="#DejaVuSans-63" transform="translate(122.181641 0)"/>
       <use xlink:href="#DejaVuSans-34" transform="translate(177.162109 0)"/>
       <use xlink:href="#DejaVuSans-43" transform="translate(240.785156 0)"/>
       <use xlink:href="#DejaVuSans-6f" transform="translate(310.609375 0)"/>
       <use xlink:href="#DejaVuSans-74" transform="translate(371.791016 0)"/>
      </g>
     </g>
    </g>
    <g id="xtick_18">
     <g id="line2d_35">
      <path d="M 381.450887 317.72 
L 381.450887 10.8 
" clip-path="url(#p5d85ec5d68)" style="fill: none; stroke: #b0b0b0; stroke-width: 0.8; stroke-linecap: square"/>
     </g>
     <g id="line2d_36">
      <g>
       <use xlink:href="#md98e18c52c" x="381.450887" y="317.72" style="stroke: #000000; stroke-width: 0.8"/>
      </g>
     </g>
     <g id="text_18">
      <!-- Vec4Dot -->
      <g transform="translate(360.541512 332.318437) scale(0.1 -0.1)">
       <use xlink:href="#DejaVuSans-56"/>
       <use xlink:href="#DejaVuSans-65" transform="translate(60.658203 0)"/>
       <use xlink:href="#DejaVuSans-63" transform="translate(122.181641 0)"/>
       <use xlink:href="#DejaVuSans-34" transform="translate(177.162109 0)"/>
       <use xlink:href="#DejaVuSans-44" transform="translate(240.785156 0)"/>
       <use xlink:href="#DejaVuSans-6f" transform="translate(317.787109 0)"/>
       <use xlink:href="#DejaVuSans-74" transform="translate(378.96875 0)"/>
      </g>
     </g>
    </g>
    <g id="xtick_19">
     <g id="line2d_37">
      <path d="M 397.117943 317.72 
L 397.117943 10.8 
" clip-path="url(#p5d85ec5d68)" style="fill: none; stroke: #b0b0b0; stroke-width: 0.8; stroke-linecap: square"/>
     </g>
     <g id="line2d_38">
      <g>
       <use xlink:href="#md98e18c52c" x="397.117943" y="317.72" style="stroke: #000000; stroke-width: 0.8"/>
      </g>
     </g>
     <g id="text_19">
      <!-- Vec4Length -->
      <g transform="translate(367.831225 332.318437) scale(0.1 -0.1)">
       <defs>
        <path id="DejaVuSans-67" d="M 2906 1791 
Q 2906 2416 2648 2759 
Q 2391 3103 1925 3103 
Q 1463 3103 1205 2759 
Q 947 2416 947 1791 
Q 947 1169 1205 825 
Q 1463 481 1925 481 
Q 2391 481 2648 825 
Q 2906 1169 2906 1791 
z
M 3481 434 
Q 3481 -459 3084 -895 
Q 2688 -1331 1869 -1331 
Q 1566 -1331 1297 -1286 
Q 1028 -1241 775 -1147 
L 775 -588 
Q 1028 -725 1275 -790 
Q 1522 -856 1778 -856 
Q 2344 -856 2625 -561 
Q 2906 -266 2906 331 
L 2906 616 
Q 2728 306 2450 153 
Q 2172 0 1784 0 
Q 1141 0 747 490 
Q 353 981 353 1791 
Q 353 2603 747 3093 
Q 1141 3584 1784 3584 
Q 2172 3584 2450 3431 
Q 2728 3278 2906 2969 
L 2906 3500 
L 3481 3500 
L 3481 434 
z
" transform="scale(0.015625)"/>
        <path id="DejaVuSans-68" d="M 3513 2113 
L 3513 0 
L 2938 0 
L 2938 2094 
Q 2938 2591 2744 2837 
Q 2550 3084 2163 3084 
Q 1697 3084 1428 2787 
Q 1159 2491 1159 1978 
L 1159 0 
L 581 0 
L 581 4863 
L 1159 4863 
L 1159 2956 
Q 1366 3272 1645 3428 
Q 1925 3584 2291 3584 
Q 2894 3584 3203 3211 
Q 3513 2838 3513 2113 
z
" transform="scale(0.015625)"/>
       </defs>
       <use xlink:href="#DejaVuSans-56"/>
       <use xlink:href="#DejaVuSans-65" transform="translate(60.658203 0)"/>
       <use xlink:href="#DejaVuSans-63" transform="translate(122.181641 0)"/>
       <use xlink:href="#DejaVuSans-34" transform="translate(177.162109 0)"/>
       <use xlink:href="#DejaVuSans-4c" transform="translate(240.785156 0)"/>
       <use xlink:href="#DejaVuSans-65" transform="translate(294.748047 0)"/>
       <use xlink:href="#DejaVuSans-6e" transform="translate(356.271484 0)"/>
       <use xlink:href="#DejaVuSans-67" transform="translate(419.650391 0)"/>
       <use xlink:href="#DejaVuSans-74" transform="translate(483.126953 0)"/>
       <use xlink:href="#DejaVuSans-68" transform="translate(522.335938 0)"/>
      </g>
     </g>
    </g>
    <g id="xtick_20">
     <g id="line2d_39">
      <path d="M 412.785 317.72 
L 412.785 10.8 
" clip-path="url(#p5d85ec5d68)" style="fill: none; stroke: #b0b0b0; stroke-width: 0.8; stroke-linecap: square"/>
     </g>
     <g id="line2d_40">
      <g>
       <use xlink:href="#md98e18c52c" x="412.785" y="317.72" style="stroke: #000000; stroke-width: 0.8"/>
      </g>
     </g>
     <g id="text_20">
      <!-- Vec4Normalize -->
      <g transform="translate(375.563906 332.318437) scale(0.1 -0.1)">
       <defs>
        <path id="DejaVuSans-4e" d="M 628 4666 
L 1478 4666 
L 3547 763 
L 3547 4666 
L 4159 4666 
L 4159 0 
L 3309 0 
L 1241 3903 
L 1241 0 
L 628 0 
L 628 4666 
z
" transform="scale(0.015625)"/>
        <path id="DejaVuSans-6d" d="M 3328 2828 
Q 3544 3216 3844 3400 
Q 4144 3584 4550 3584 
Q 5097 3584 5394 3201 
Q 5691 2819 5691 2113 
L 5691 0 
L 5113 0 
L 5113 2094 
Q 5113 2597 4934 2840 
Q 4756 3084 4391 3084 
Q 3944 3084 3684 2787 
Q 3425 2491 3425 1978 
L 3425 0 
L 2847 0 
L 2847 2094 
Q 2847 2600 2669 2842 
Q 2491 3084 2119 3084 
Q 1678 3084 1418 2786 
Q 1159 2488 1159 1978 
L 1159 0 
L 581 0 
L 581 3500 
L 1159 3500 
L 1159 2956 
Q 1356 3278 1631 3431 
Q 1906 3584 2284 3584 
Q 2666 3584 2933 3390 
Q 3200 3197 3328 2828 
z
" transform="scale(0.015625)"/>
        <path id="DejaVuSans-7a" d="M 353 3500 
L 3084 3500 
L 3084 2975 
L 922 459 
L 3084 459 
L 3084 0 
L 275 0 
L 275 525 
L 2438 3041 
L 353 3041 
L 353 3500 
z
" transform="scale(0.015625)"/>
       </defs>
       <use xlink:href="#DejaVuSans-56"/>
       <use xlink:href="#DejaVuSans-65" transform="translate(60.658203 0)"/>
       <use xlink:href="#DejaVuSans-63" transform="translate(122.181641 0)"/>
       <use xlink:href="#DejaVuSans-34" transform="translate(177.162109 0)"/>
       <use xlink:href="#DejaVuSans-4e" transform="translate(240.785156 0)"/>
       <use xlink:href="#DejaVuSans-6f" transform="translate(315.589844 0)"/>
       <use xlink:href="#DejaVuSans-72" transform="translate(376.771484 0)"/>
       <use xlink:href="#DejaVuSans-6d" transform="translate(416.134766 0)"/>
       <use xlink:href="#DejaVuSans-61" transform="translate(513.546875 0)"/>
       <use xlink:href="#DejaVuSans-6c" transform="translate(574.826172 0)"/>
       <use xlink:href="#DejaVuSans-69" transform="translate(602.609375 0)"/>
       <use xlink:href="#DejaVuSans-7a" transform="translate(630.392578 0)"/>
       <use xlink:href="#DejaVuSans-65" transform="translate(682.882812 0)"/>
      </g>
     </g>
    </g>
   </g>
   <g id="matplotlib.axis_2">
    <g id="ytick_1">
     <g id="line2d_41">
      <path d="M 44.57 317.72 
L 412.785 317.72 
" clip-path="url(#p5d85ec5d68)" style="fill: none; stroke: #b0b0b0; stroke-width: 0.8; stroke-linecap: square"/>
     </g>
     <g id="line2d_42">
      <defs>
       <path id="medca87379e" d="M 0 0 
L -3.5 0 
" style="stroke: #000000; stroke-width: 0.8"/>
      </defs>
      <g>
       <use xlink:href="#medca87379e" x="44.57" y="317.72" style="stroke: #000000; stroke-width: 0.8"/>
      </g>
     </g>
     <g id="text_21">
      <!-- 0 -->
      <g transform="translate(31.2075 321.519219) scale(0.1 -0.1)">
       <defs>
        <path id="DejaVuSans-30" d="M 2034 4250 
Q 1547 4250 1301 3770 
Q 1056 3291 1056 2328 
Q 1056 1369 1301 889 
Q 1547 409 2034 409 
Q 2525 409 2770 889 
Q 3016 1369 3016 2328 
Q 3016 3291 2770 3770 
Q 2525 4250 2034 4250 
z
M 2034 4750 
Q 2819 4750 3233 4129 
Q 3647 3509 3647 2328 
Q 3647 1150 3233 529 
Q 2819 -91 2034 -91 
Q 1250 -91 836 529 
Q 422 1150 422 2328 
Q 422 3509 836 4129 
Q 1250 4750 2034 4750 
z
" transform="scale(0.015625)"/>
       </defs>
       <use xlink:href="#DejaVuSans-30"/>
      </g>
     </g>
    </g>
    <g id="ytick_2">
     <g id="line2d_43">
      <path d="M 44.57 268.243594 
L 412.785 268.243594 
" clip-path="url(#p5d85ec5d68)" style="fill: none; stroke: #b0b0b0; stroke-width: 0.8; stroke-linecap: square"/>
     </g>
     <g id="line2d_44">
      <g>
       <use xlink:href="#medca87379e" x="44.57" y="268.243594" style="stroke: #000000; stroke-width: 0.8"/>
      </g>
     </g>
     <g id="text_22">
      <!-- 10 -->
      <g transform="translate(24.845 272.042813) scale(0.1 -0.1)">
       <defs>
        <path id="DejaVuSans-31" d="M 794 531 
L 1825 531 
L 1825 4091 
L 703 3866 
L 703 4441 
L 1819 4666 
L 2450 4666 
L 2450 531 
L 3481 531 
L 3481 0 
L 794 0 
L 794 531 
z
" transform="scale(0.015625)"/>
       </defs>
       <use xlink:href="#DejaVuSans-31"/>
       <use xlink:href="#DejaVuSans-30" transform="translate(63.623047 0)"/>
      </g>
     </g>
    </g>
    <g id="ytick_3">
     <g id="line2d_45">
      <path d="M 44.57 218.767188 
L 412.785 218.767188 
" clip-path="url(#p5d85ec5d68)" style="fill: none; stroke: #b0b0b0; stroke-width: 0.8; stroke-linecap: square"/>
     </g>
     <g id="line2d_46">
      <g>
       <use xlink:href="#medca87379e" x="44.57" y="218.767188" style="stroke: #000000; stroke-width: 0.8"/>
      </g>
     </g>
     <g id="text_23">
      <!-- 20 -->
      <g transform="translate(24.845 222.566407) scale(0.1 -0.1)">
       <defs>
        <path id="DejaVuSans-32" d="M 1228 531 
L 3431 531 
L 3431 0 
L 469 0 
L 469 531 
Q 828 903 1448 1529 
Q 2069 2156 2228 2338 
Q 2531 2678 2651 2914 
Q 2772 3150 2772 3378 
Q 2772 3750 2511 3984 
Q 2250 4219 1831 4219 
Q 1534 4219 1204 4116 
Q 875 4013 500 3803 
L 500 4441 
Q 881 4594 1212 4672 
Q 1544 4750 1819 4750 
Q 2544 4750 2975 4387 
Q 3406 4025 3406 3419 
Q 3406 3131 3298 2873 
Q 3191 2616 2906 2266 
Q 2828 2175 2409 1742 
Q 1991 1309 1228 531 
z
" transform="scale(0.015625)"/>
       </defs>
       <use xlink:href="#DejaVuSans-32"/>
       <use xlink:href="#DejaVuSans-30" transform="translate(63.623047 0)"/>
      </g>
     </g>
    </g>
    <g id="ytick_4">
     <g id="line2d_47">
      <path d="M 44.57 169.290782 
L 412.785 169.290782 
" clip-path="url(#p5d85ec5d68)" style="fill: none; stroke: #b0b0b0; stroke-width: 0.8; stroke-linecap: square"/>
     </g>
     <g id="line2d_48">
      <g>
       <use xlink:href="#medca87379e" x="44.57" y="169.290782" style="stroke: #000000; stroke-width: 0.8"/>
      </g>
     </g>
     <g id="text_24">
      <!-- 30 -->
      <g transform="translate(24.845 173.090001) scale(0.1 -0.1)">
       <defs>
        <path id="DejaVuSans-33" d="M 2597 2516 
Q 3050 2419 3304 2112 
Q 3559 1806 3559 1356 
Q 3559 666 3084 287 
Q 2609 -91 1734 -91 
Q 1441 -91 1130 -33 
Q 819 25 488 141 
L 488 750 
Q 750 597 1062 519 
Q 1375 441 1716 441 
Q 2309 441 2620 675 
Q 2931 909 2931 1356 
Q 2931 1769 2642 2001 
Q 2353 2234 1838 2234 
L 1294 2234 
L 1294 2753 
L 1863 2753 
Q 2328 2753 2575 2939 
Q 2822 3125 2822 3475 
Q 2822 3834 2567 4026 
Q 2313 4219 1838 4219 
Q 1578 4219 1281 4162 
Q 984 4106 628 3988 
L 628 4550 
Q 988 4650 1302 4700 
Q 1616 4750 1894 4750 
Q 2613 4750 3031 4423 
Q 3450 4097 3450 3541 
Q 3450 3153 3228 2886 
Q 3006 2619 2597 2516 
z
" transform="scale(0.015625)"/>
       </defs>
       <use xlink:href="#DejaVuSans-33"/>
       <use xlink:href="#DejaVuSans-30" transform="translate(63.623047 0)"/>
      </g>
     </g>
    </g>
    <g id="ytick_5">
     <g id="line2d_49">
      <path d="M 44.57 119.814376 
L 412.785 119.814376 
" clip-path="url(#p5d85ec5d68)" style="fill: none; stroke: #b0b0b0; stroke-width: 0.8; stroke-linecap: square"/>
     </g>
     <g id="line2d_50">
      <g>
       <use xlink:href="#medca87379e" x="44.57" y="119.814376" style="stroke: #000000; stroke-width: 0.8"/>
      </g>
     </g>
     <g id="text_25">
      <!-- 40 -->
      <g transform="translate(24.845 123.613595) scale(0.1 -0.1)">
       <use xlink:href="#DejaVuSans-34"/>
       <use xlink:href="#DejaVuSans-30" transform="translate(63.623047 0)"/>
      </g>
     </g>
    </g>
    <g id="ytick_6">
     <g id="line2d_51">
      <path d="M 44.57 70.33797 
L 412.785 70.33797 
" clip-path="url(#p5d85ec5d68)" style="fill: none; stroke: #b0b0b0; stroke-width: 0.8; stroke-linecap: square"/>
     </g>
     <g id="line2d_52">
      <g>
       <use xlink:href="#medca87379e" x="44.57" y="70.33797" style="stroke: #000000; stroke-width: 0.8"/>
      </g>
     </g>
     <g id="text_26">
      <!-- 50 -->
      <g transform="translate(24.845 74.137189) scale(0.1 -0.1)">
       <defs>
        <path id="DejaVuSans-35" d="M 691 4666 
L 3169 4666 
L 3169 4134 
L 1269 4134 
L 1269 2991 
Q 1406 3038 1543 3061 
Q 1681 3084 1819 3084 
Q 2600 3084 3056 2656 
Q 3513 2228 3513 1497 
Q 3513 744 3044 326 
Q 2575 -91 1722 -91 
Q 1428 -91 1123 -41 
Q 819 9 494 109 
L 494 744 
Q 775 591 1075 516 
Q 1375 441 1709 441 
Q 2250 441 2565 725 
Q 2881 1009 2881 1497 
Q 2881 1984 2565 2268 
Q 2250 2553 1709 2553 
Q 1456 2553 1204 2497 
Q 953 2441 691 2322 
L 691 4666 
z
" transform="scale(0.015625)"/>
       </defs>
       <use xlink:href="#DejaVuSans-35"/>
       <use xlink:href="#DejaVuSans-30" transform="translate(63.623047 0)"/>
      </g>
     </g>
    </g>
    <g id="ytick_7">
     <g id="line2d_53">
      <path d="M 44.57 20.861564 
L 412.785 20.861564 
" clip-path="url(#p5d85ec5d68)" style="fill: none; stroke: #b0b0b0; stroke-width: 0.8; stroke-linecap: square"/>
     </g>
     <g id="line2d_54">
      <g>
       <use xlink:href="#medca87379e" x="44.57" y="20.861564" style="stroke: #000000; stroke-width: 0.8"/>
      </g>
     </g>
     <g id="text_27">
      <!-- 60 -->
      <g transform="translate(24.845 24.660783) scale(0.1 -0.1)">
       <defs>
        <path id="DejaVuSans-36" d="M 2113 2584 
Q 1688 2584 1439 2293 
Q 1191 2003 1191 1497 
Q 1191 994 1439 701 
Q 1688 409 2113 409 
Q 2538 409 2786 701 
Q 3034 994 3034 1497 
Q 3034 2003 2786 2293 
Q 2538 2584 2113 2584 
z
M 3366 4563 
L 3366 3988 
Q 3128 4100 2886 4159 
Q 2644 4219 2406 4219 
Q 1781 4219 1451 3797 
Q 1122 3375 1075 2522 
Q 1259 2794 1537 2939 
Q 1816 3084 2150 3084 
Q 2853 3084 3261 2657 
Q 3669 2231 3669 1497 
Q 3669 778 3244 343 
Q 2819 -91 2113 -91 
Q 1303 -91 875 529 
Q 447 1150 447 2328 
Q 447 3434 972 4092 
Q 1497 4750 2381 4750 
Q 2619 4750 2861 4703 
Q 3103 4656 3366 4563 
z
" transform="scale(0.015625)"/>
       </defs>
       <use xlink:href="#DejaVuSans-36"/>
       <use xlink:href="#DejaVuSans-30" transform="translate(63.623047 0)"/>
      </g>
     </g>
    </g>
    <g id="text_28">
     <!-- Time (ns) -->
     <g transform="translate(18.765313 187.757656) rotate(-90) scale(0.1 -0.1)">
      <defs>
       <path id="DejaVuSans-20" transform="scale(0.015625)"/>
       <path id="DejaVuSans-28" d="M 1984 4856 
Q 1566 4138 1362 3434 
Q 1159 2731 1159 2009 
Q 1159 1288 1364 580 
Q 1569 -128 1984 -844 
L 1484 -844 
Q 1016 -109 783 600 
Q 550 1309 550 2009 
Q 550 2706 781 3412 
Q 1013 4119 1484 4856 
L 1984 4856 
z
" transform="scale(0.015625)"/>
       <path id="DejaVuSans-29" d="M 513 4856 
L 1013 4856 
Q 1481 4119 1714 3412 
Q 1947 2706 1947 2009 
Q 1947 1309 1714 600 
Q 1481 -109 1013 -844 
L 513 -844 
Q 928 -128 1133 580 
Q 1338 1288 1338 2009 
Q 1338 2731 1133 3434 
Q 928 4138 513 4856 
z
" transform="scale(0.015625)"/>
      </defs>
      <use xlink:href="#DejaVuSans-54"/>
      <use xlink:href="#DejaVuSans-69" transform="translate(57.958984 0)"/>
      <use xlink:href="#DejaVuSans-6d" transform="translate(85.742188 0)"/>
      <use xlink:href="#DejaVuSans-65" transform="translate(183.154297 0)"/>
      <use xlink:href="#DejaVuSans-20" transform="translate(244.677734 0)"/>
      <use xlink:href="#DejaVuSans-28" transform="translate(276.464844 0)"/>
      <use xlink:href="#DejaVuSans-6e" transform="translate(315.478516 0)"/>
      <use xlink:href="#DejaVuSans-73" transform="translate(378.857422 0)"/>
      <use xlink:href="#DejaVuSans-29" transform="translate(430.957031 0)"/>
     </g>
    </g>
   </g>
   <g id="LineCollection_1">
    <path d="M 63.017959 315.962586 
L 63.017959 315.768049 
" clip-path="url(#p5d85ec5d68)" style="fill: none; stroke: #000000; stroke-width: 1.5"/>
    <path d="M 78.685016 316.148854 
L 78.685016 316.130816 
" clip-path="url(#p5d85ec5d68)" style="fill: none; stroke: #000000; stroke-width: 1.5"/>
    <path d="M 94.352073 316.021644 
L 94.352073 315.748064 
" clip-path="url(#p5d85ec5d68)" style="fill: none; stroke: #000000; stroke-width: 1.5"/>
    <path d="M 110.019129 309.879574 
L 110.019129 309.818275 
" clip-path="url(#p5d85ec5d68)" style="fill: none; stroke: #000000; stroke-width: 1.5"/>
    <path d="M 125.686186 316.222421 
L 125.686186 316.193017 
" clip-path="url(#p5d85ec5d68)" style="fill: none; stroke: #000000; stroke-width: 1.5"/>
    <path d="M 141.353243 316.153903 
L 141.353243 316.145944 
" clip-path="url(#p5d85ec5d68)" style="fill: none; stroke: #000000; stroke-width: 1.5"/>
    <path d="M 157.020299 316.151135 
L 157.020299 316.144163 
" clip-path="url(#p5d85ec5d68)" style="fill: none; stroke: #000000; stroke-width: 1.5"/>
    <path d="M 172.687356 299.897479 
L 172.687356 299.709616 
" clip-path="url(#p5d85ec5d68)" style="fill: none; stroke: #000000; stroke-width: 1.5"/>
    <path d="M 188.354413 309.878717 
L 188.354413 309.816131 
" clip-path="url(#p5d85ec5d68)" style="fill: none; stroke: #000000; stroke-width: 1.5"/>
    <path d="M 204.02147 274.470807 
L 204.02147 273.346987 
" clip-path="url(#p5d85ec5d68)" style="fill: none; stroke: #000000; stroke-width: 1.5"/>
    <path d="M 219.688526 313.668847 
L 219.688526 313.637414 
" clip-path="url(#p5d85ec5d68)" style="fill: none; stroke: #000000; stroke-width: 1.5"/>
    <path d="M 235.355583 229.208033 
L 235.355583 228.398067 
" clip-path="url(#p5d85ec5d68)" style="fill: none; stroke: #000000; stroke-width: 1.5"/>
    <path d="M 251.02264 309.318352 
L 251.02264 309.279565 
" clip-path="url(#p5d85ec5d68)" style="fill: none; stroke: #000000; stroke-width: 1.5"/>
    <path d="M 266.689696 229.301221 
L 266.689696 227.838316 
" clip-path="url(#p5d85ec5d68)" style="fill: none; stroke: #000000; stroke-width: 1.5"/>
    <path d="M 282.356753 310.321029 
L 282.356753 310.284584 
" clip-path="url(#p5d85ec5d68)" style="fill: none; stroke: #000000; stroke-width: 1.5"/>
    <path d="M 298.02381 204.122154 
L 298.02381 201.363391 
" clip-path="url(#p5d85ec5d68)" style="fill: none; stroke: #000000; stroke-width: 1.5"/>
    <path d="M 313.690866 204.200719 
L 313.690866 201.126546 
" clip-path="url(#p5d85ec5d68)" style="fill: none; stroke: #000000; stroke-width: 1.5"/>
    <path d="M 329.357923 311.445755 
L 329.357923 311.402184 
" clip-path="url(#p5d85ec5d68)" style="fill: none; stroke: #000000; stroke-width: 1.5"/>
    <path d="M 345.02498 311.437816 
L 345.02498 311.409416 
" clip-path="url(#p5d85ec5d68)" style="fill: none; stroke: #000000; stroke-width: 1.5"/>
    <path d="M 360.692036 301.530868 
L 360.692036 301.452323 
" clip-path="url(#p5d85ec5d68)" style="fill: none; stroke: #000000; stroke-width: 1.5"/>
   </g>
   <g id="line2d_55">
    <defs>
     <path id="maada94b5eb" d="M 20 0 
L -20 -0 
" style="stroke: #000000"/>
    </defs>
    <g clip-path="url(#p5d85ec5d68)">
     <use xlink:href="#maada94b5eb" x="63.017959" y="315.962586" style="stroke: #000000"/>
     <use xlink:href="#maada94b5eb" x="78.685016" y="316.148854" style="stroke: #000000"/>
     <use xlink:href="#maada94b5eb" x="94.352073" y="316.021644" style="stroke: #000000"/>
     <use xlink:href="#maada94b5eb" x="110.019129" y="309.879574" style="stroke: #000000"/>
     <use xlink:href="#maada94b5eb" x="125.686186" y="316.222421" style="stroke: #000000"/>
     <use xlink:href="#maada94b5eb" x="141.353243" y="316.153903" style="stroke: #000000"/>
     <use xlink:href="#maada94b5eb" x="157.020299" y="316.151135" style="stroke: #000000"/>
     <use xlink:href="#maada94b5eb" x="172.687356" y="299.897479" style="stroke: #000000"/>
     <use xlink:href="#maada94b5eb" x="188.354413" y="309.878717" style="stroke: #000000"/>
     <use xlink:href="#maada94b5eb" x="204.02147" y="274.470807" style="stroke: #000000"/>
     <use xlink:href="#maada94b5eb" x="219.688526" y="313.668847" style="stroke: #000000"/>
     <use xlink:href="#maada94b5eb" x="235.355583" y="229.208033" style="stroke: #000000"/>
     <use xlink:href="#maada94b5eb" x="251.02264" y="309.318352" style="stroke: #000000"/>
     <use xlink:href="#maada94b5eb" x="266.689696" y="229.301221" style="stroke: #000000"/>
     <use xlink:href="#maada94b5eb" x="282.356753" y="310.321029" style="stroke: #000000"/>
     <use xlink:href="#maada94b5eb" x="298.02381" y="204.122154" style="stroke: #000000"/>
     <use xlink:href="#maada94b5eb" x="313.690866" y="204.200719" style="stroke: #000000"/>
     <use xlink:href="#maada94b5eb" x="329.357923" y="311.445755" style="stroke: #000000"/>
     <use xlink:href="#maada94b5eb" x="345.02498" y="311.437816" style="stroke: #000000"/>
     <use xlink:href="#maada94b5eb" x="360.692036" y="301.530868" style="stroke: #000000"/>
    </g>
   </g>
   <g id="line2d_56">
    <g clip-path="url(#p5d85ec5d68)">
     <use xlink:href="#maada94b5eb" x="63.017959" y="315.768049" style="stroke: #000000"/>
     <use xlink:href="#maada94b5eb" x="78.685016" y="316.130816" style="stroke: #000000"/>
     <use xlink:href="#maada94b5eb" x="94.352073" y="315.748064" style="stroke: #000000"/>
     <use xlink:href="#maada94b5eb" x="110.019129" y="309.818275" style="stroke: #000000"/>
     <use xlink:href="#maada94b5eb" x="125.686186" y="316.193017" style="stroke: #000000"/>
     <use xlink:href="#maada94b5eb" x="141.353243" y="316.145944" style="stroke: #000000"/>
     <use xlink:href="#maada94b5eb" x="157.020299" y="316.144163" style="stroke: #000000"/>
     <use xlink:href="#maada94b5eb" x="172.687356" y="299.709616" style="stroke: #000000"/>
     <use xlink:href="#maada94b5eb" x="188.354413" y="309.816131" style="stroke: #000000"/>
     <use xlink:href="#maada94b5eb" x="204.02147" y="273.346987" style="stroke: #000000"/>
     <use xlink:href="#maada94b5eb" x="219.688526" y="313.637414" style="stroke: #000000"/>
     <use xlink:href="#maada94b5eb" x="235.355583" y="228.398067" style="stroke: #000000"/>
     <use xlink:href="#maada94b5eb" x="251.02264" y="309.279565" style="stroke: #000000"/>
     <use xlink:href="#maada94b5eb" x="266.689696" y="227.838316" style="stroke: #000000"/>
     <use xlink:href="#maada94b5eb" x="282.356753" y="310.284584" style="stroke: #000000"/>
     <use xlink:href="#maada94b5eb" x="298.02381" y="201.363391" style="stroke: #000000"/>
     <use xlink:href="#maada94b5eb" x="313.690866" y="201.126546" style="stroke: #000000"/>
     <use xlink:href="#maada94b5eb" x="329.357923" y="311.402184" style="stroke: #000000"/>
     <use xlink:href="#maada94b5eb" x="345.02498" y="311.409416" style="stroke: #000000"/>
     <use xlink:href="#maada94b5eb" x="360.692036" y="301.452323" style="stroke: #000000"/>
    </g>
   </g>
   <g id="LineCollection_2">
    <path d="M 68.501429 316.222978 
L 68.501429 316.211166 
" clip-path="url(#p5d85ec5d68)" style="fill: none; stroke: #000000; stroke-width: 1.5"/>
    <path d="M 84.168486 316.072128 
L 84.168486 315.946395 
" clip-path="url(#p5d85ec5d68)" style="fill: none; stroke: #000000; stroke-width: 1.5"/>
    <path d="M 99.835542 316.231947 
L 99.835542 316.227449 
" clip-path="url(#p5d85ec5d68)" style="fill: none; stroke: #000000; stroke-width: 1.5"/>
    <path d="M 115.502599 313.288246 
L 115.502599 313.260587 
" clip-path="url(#p5d85ec5d68)" style="fill: none; stroke: #000000; stroke-width: 1.5"/>
    <path d="M 131.169656 316.242395 
L 131.169656 316.232232 
" clip-path="url(#p5d85ec5d68)" style="fill: none; stroke: #000000; stroke-width: 1.5"/>
    <path d="M 146.836713 316.087719 
L 146.836713 315.973455 
" clip-path="url(#p5d85ec5d68)" style="fill: none; stroke: #000000; stroke-width: 1.5"/>
    <path d="M 162.503769 316.214604 
L 162.503769 316.207395 
" clip-path="url(#p5d85ec5d68)" style="fill: none; stroke: #000000; stroke-width: 1.5"/>
    <path d="M 178.170826 313.281033 
L 178.170826 313.268672 
" clip-path="url(#p5d85ec5d68)" style="fill: none; stroke: #000000; stroke-width: 1.5"/>
    <path d="M 193.837883 316.047165 
L 193.837883 316.042423 
" clip-path="url(#p5d85ec5d68)" style="fill: none; stroke: #000000; stroke-width: 1.5"/>
    <path d="M 209.504939 308.853181 
L 209.504939 308.801463 
" clip-path="url(#p5d85ec5d68)" style="fill: none; stroke: #000000; stroke-width: 1.5"/>
    <path d="M 225.171996 314.759489 
L 225.171996 314.746906 
" clip-path="url(#p5d85ec5d68)" style="fill: none; stroke: #000000; stroke-width: 1.5"/>
    <path d="M 240.839053 228.910972 
L 240.839053 227.959752 
" clip-path="url(#p5d85ec5d68)" style="fill: none; stroke: #000000; stroke-width: 1.5"/>
    <path d="M 256.506109 228.568432 
L 256.506109 226.836267 
" clip-path="url(#p5d85ec5d68)" style="fill: none; stroke: #000000; stroke-width: 1.5"/>
    <path d="M 272.173166 228.89484 
L 272.173166 227.958379 
" clip-path="url(#p5d85ec5d68)" style="fill: none; stroke: #000000; stroke-width: 1.5"/>
    <path d="M 287.840223 229.435512 
L 287.840223 228.141157 
" clip-path="url(#p5d85ec5d68)" style="fill: none; stroke: #000000; stroke-width: 1.5"/>
    <path d="M 303.50728 127.371773 
L 303.50728 52.299958 
" clip-path="url(#p5d85ec5d68)" style="fill: none; stroke: #000000; stroke-width: 1.5"/>
    <path d="M 319.174336 114.466042 
L 319.174336 25.415238 
" clip-path="url(#p5d85ec5d68)" style="fill: none; stroke: #000000; stroke-width: 1.5"/>
    <path d="M 334.841393 308.621303 
L 334.841393 308.596031 
" clip-path="url(#p5d85ec5d68)" style="fill: none; stroke: #000000; stroke-width: 1.5"/>
    <path d="M 350.50845 316.321532 
L 350.50845 316.311355 
" clip-path="url(#p5d85ec5d68)" style="fill: none; stroke: #000000; stroke-width: 1.5"/>
    <path d="M 366.175506 308.614145 
L 366.175506 308.571426 
" clip-path="url(#p5d85ec5d68)" style="fill: none; stroke: #000000; stroke-width: 1.5"/>
   </g>
   <g id="line2d_57">
    <g clip-path="url(#p5d85ec5d68)">
     <use xlink:href="#maada94b5eb" x="68.501429" y="316.222978" style="stroke: #000000"/>
     <use xlink:href="#maada94b5eb" x="84.168486" y="316.072128" style="stroke: #000000"/>
     <use xlink:href="#maada94b5eb" x="99.835542" y="316.231947" style="stroke: #000000"/>
     <use xlink:href="#maada94b5eb" x="115.502599" y="313.288246" style="stroke: #000000"/>
     <use xlink:href="#maada94b5eb" x="131.169656" y="316.242395" style="stroke: #000000"/>
     <use xlink:href="#maada94b5eb" x="146.836713" y="316.087719" style="stroke: #000000"/>
     <use xlink:href="#maada94b5eb" x="162.503769" y="316.214604" style="stroke: #000000"/>
     <use xlink:href="#maada94b5eb" x="178.170826" y="313.281033" style="stroke: #000000"/>
     <use xlink:href="#maada94b5eb" x="193.837883" y="316.047165" style="stroke: #000000"/>
     <use xlink:href="#maada94b5eb" x="209.504939" y="308.853181" style="stroke: #000000"/>
     <use xlink:href="#maada94b5eb" x="225.171996" y="314.759489" style="stroke: #000000"/>
     <use xlink:href="#maada94b5eb" x="240.839053" y="228.910972" style="stroke: #000000"/>
     <use xlink:href="#maada94b5eb" x="256.506109" y="228.568432" style="stroke: #000000"/>
     <use xlink:href="#maada94b5eb" x="272.173166" y="228.89484" style="stroke: #000000"/>
     <use xlink:href="#maada94b5eb" x="287.840223" y="229.435512" style="stroke: #000000"/>
     <use xlink:href="#maada94b5eb" x="303.50728" y="127.371773" style="stroke: #000000"/>
     <use xlink:href="#maada94b5eb" x="319.174336" y="114.466042" style="stroke: #000000"/>
     <use xlink:href="#maada94b5eb" x="334.841393" y="308.621303" style="stroke: #000000"/>
     <use xlink:href="#maada94b5eb" x="350.50845" y="316.321532" style="stroke: #000000"/>
     <use xlink:href="#maada94b5eb" x="366.175506" y="308.614145" style="stroke: #000000"/>
    </g>
   </g>
   <g id="line2d_58">
    <g clip-path="url(#p5d85ec5d68)">
     <use xlink:href="#maada94b5eb" x="68.501429" y="316.211166" style="stroke: #000000"/>
     <use xlink:href="#maada94b5eb" x="84.168486" y="315.946395" style="stroke: #000000"/>
     <use xlink:href="#maada94b5eb" x="99.835542" y="316.227449" style="stroke: #000000"/>
     <use xlink:href="#maada94b5eb" x="115.502599" y="313.260587" style="stroke: #000000"/>
     <use xlink:href="#maada94b5eb" x="131.169656" y="316.232232" style="stroke: #000000"/>
     <use xlink:href="#maada94b5eb" x="146.836713" y="315.973455" style="stroke: #000000"/>
     <use xlink:href="#maada94b5eb" x="162.503769" y="316.207395" style="stroke: #000000"/>
     <use xlink:href="#maada94b5eb" x="178.170826" y="313.268672" style="stroke: #000000"/>
     <use xlink:href="#maada94b5eb" x="193.837883" y="316.042423" style="stroke: #000000"/>
     <use xlink:href="#maada94b5eb" x="209.504939" y="308.801463" style="stroke: #000000"/>
     <use xlink:href="#maada94b5eb" x="225.171996" y="314.746906" style="stroke: #000000"/>
     <use xlink:href="#maada94b5eb" x="240.839053" y="227.959752" style="stroke: #000000"/>
     <use xlink:href="#maada94b5eb" x="256.506109" y="226.836267" style="stroke: #000000"/>
     <use xlink:href="#maada94b5eb" x="272.173166" y="227.958379" style="stroke: #000000"/>
     <use xlink:href="#maada94b5eb" x="287.840223" y="228.141157" style="stroke: #000000"/>
     <use xlink:href="#maada94b5eb" x="303.50728" y="52.299958" style="stroke: #000000"/>
     <use xlink:href="#maada94b5eb" x="319.174336" y="25.415238" style="stroke: #000000"/>
     <use xlink:href="#maada94b5eb" x="334.841393" y="308.596031" style="stroke: #000000"/>
     <use xlink:href="#maada94b5eb" x="350.50845" y="316.311355" style="stroke: #000000"/>
     <use xlink:href="#maada94b5eb" x="366.175506" y="308.571426" style="stroke: #000000"/>
    </g>
   </g>
   <g id="LineCollection_3">
    <path d="M 73.984899 316.22977 
L 73.984899 316.217041 
" clip-path="url(#p5d85ec5d68)" style="fill: none; stroke: #000000; stroke-width: 1.5"/>
    <path d="M 89.651956 315.988102 
L 89.651956 315.878844 
" clip-path="url(#p5d85ec5d68)" style="fill: none; stroke: #000000; stroke-width: 1.5"/>
    <path d="M 105.319012 316.236257 
L 105.319012 316.229675 
" clip-path="url(#p5d85ec5d68)" style="fill: none; stroke: #000000; stroke-width: 1.5"/>
    <path d="M 120.986069 313.289256 
L 120.986069 313.250451 
" clip-path="url(#p5d85ec5d68)" style="fill: none; stroke: #000000; stroke-width: 1.5"/>
    <path d="M 136.653126 316.210984 
L 136.653126 316.206615 
" clip-path="url(#p5d85ec5d68)" style="fill: none; stroke: #000000; stroke-width: 1.5"/>
    <path d="M 152.320182 316.219502 
L 152.320182 316.209959 
" clip-path="url(#p5d85ec5d68)" style="fill: none; stroke: #000000; stroke-width: 1.5"/>
    <path d="M 167.987239 316.216995 
L 167.987239 316.205506 
" clip-path="url(#p5d85ec5d68)" style="fill: none; stroke: #000000; stroke-width: 1.5"/>
    <path d="M 183.654296 281.063403 
L 183.654296 279.936985 
" clip-path="url(#p5d85ec5d68)" style="fill: none; stroke: #000000; stroke-width: 1.5"/>
    <path d="M 199.321353 289.081777 
L 199.321353 288.963081 
" clip-path="url(#p5d85ec5d68)" style="fill: none; stroke: #000000; stroke-width: 1.5"/>
    <path d="M 214.988409 282.239387 
L 214.988409 282.031338 
" clip-path="url(#p5d85ec5d68)" style="fill: none; stroke: #000000; stroke-width: 1.5"/>
    <path d="M 230.655466 290.784198 
L 230.655466 290.608955 
" clip-path="url(#p5d85ec5d68)" style="fill: none; stroke: #000000; stroke-width: 1.5"/>
    <path d="M 246.322523 229.018572 
L 246.322523 220.426891 
" clip-path="url(#p5d85ec5d68)" style="fill: none; stroke: #000000; stroke-width: 1.5"/>
    <path d="M 261.989579 242.30711 
L 261.989579 241.201624 
" clip-path="url(#p5d85ec5d68)" style="fill: none; stroke: #000000; stroke-width: 1.5"/>
    <path d="M 277.656636 229.399324 
L 277.656636 228.079482 
" clip-path="url(#p5d85ec5d68)" style="fill: none; stroke: #000000; stroke-width: 1.5"/>
    <path d="M 293.323693 246.720055 
L 293.323693 241.420648 
" clip-path="url(#p5d85ec5d68)" style="fill: none; stroke: #000000; stroke-width: 1.5"/>
    <path d="M 308.990749 204.371557 
L 308.990749 201.499424 
" clip-path="url(#p5d85ec5d68)" style="fill: none; stroke: #000000; stroke-width: 1.5"/>
    <path d="M 324.657806 204.960828 
L 324.657806 202.195404 
" clip-path="url(#p5d85ec5d68)" style="fill: none; stroke: #000000; stroke-width: 1.5"/>
    <path d="M 340.324863 312.512236 
L 340.324863 312.47368 
" clip-path="url(#p5d85ec5d68)" style="fill: none; stroke: #000000; stroke-width: 1.5"/>
    <path d="M 355.991919 311.794495 
L 355.991919 311.246592 
" clip-path="url(#p5d85ec5d68)" style="fill: none; stroke: #000000; stroke-width: 1.5"/>
    <path d="M 371.658976 308.849118 
L 371.658976 308.798195 
" clip-path="url(#p5d85ec5d68)" style="fill: none; stroke: #000000; stroke-width: 1.5"/>
   </g>
   <g id="line2d_59">
    <g clip-path="url(#p5d85ec5d68)">
     <use xlink:href="#maada94b5eb" x="73.984899" y="316.22977" style="stroke: #000000"/>
     <use xlink:href="#maada94b5eb" x="89.651956" y="315.988102" style="stroke: #000000"/>
     <use xlink:href="#maada94b5eb" x="105.319012" y="316.236257" style="stroke: #000000"/>
     <use xlink:href="#maada94b5eb" x="120.986069" y="313.289256" style="stroke: #000000"/>
     <use xlink:href="#maada94b5eb" x="136.653126" y="316.210984" style="stroke: #000000"/>
     <use xlink:href="#maada94b5eb" x="152.320182" y="316.219502" style="stroke: #000000"/>
     <use xlink:href="#maada94b5eb" x="167.987239" y="316.216995" style="stroke: #000000"/>
     <use xlink:href="#maada94b5eb" x="183.654296" y="281.063403" style="stroke: #000000"/>
     <use xlink:href="#maada94b5eb" x="199.321353" y="289.081777" style="stroke: #000000"/>
     <use xlink:href="#maada94b5eb" x="214.988409" y="282.239387" style="stroke: #000000"/>
     <use xlink:href="#maada94b5eb" x="230.655466" y="290.784198" style="stroke: #000000"/>
     <use xlink:href="#maada94b5eb" x="246.322523" y="229.018572" style="stroke: #000000"/>
     <use xlink:href="#maada94b5eb" x="261.989579" y="242.30711" style="stroke: #000000"/>
     <use xlink:href="#maada94b5eb" x="277.656636" y="229.399324" style="stroke: #000000"/>
     <use xlink:href="#maada94b5eb" x="293.323693" y="246.720055" style="stroke: #000000"/>
     <use xlink:href="#maada94b5eb" x="308.990749" y="204.371557" style="stroke: #000000"/>
     <use xlink:href="#maada94b5eb" x="324.657806" y="204.960828" style="stroke: #000000"/>
     <use xlink:href="#maada94b5eb" x="340.324863" y="312.512236" style="stroke: #000000"/>
     <use xlink:href="#maada94b5eb" x="355.991919" y="311.794495" style="stroke: #000000"/>
     <use xlink:href="#maada94b5eb" x="371.658976" y="308.849118" style="stroke: #000000"/>
    </g>
   </g>
   <g id="line2d_60">
    <g clip-path="url(#p5d85ec5d68)">
     <use xlink:href="#maada94b5eb" x="73.984899" y="316.217041" style="stroke: #000000"/>
     <use xlink:href="#maada94b5eb" x="89.651956" y="315.878844" style="stroke: #000000"/>
     <use xlink:href="#maada94b5eb" x="105.319012" y="316.229675" style="stroke: #000000"/>
     <use xlink:href="#maada94b5eb" x="120.986069" y="313.250451" style="stroke: #000000"/>
     <use xlink:href="#maada94b5eb" x="136.653126" y="316.206615" style="stroke: #000000"/>
     <use xlink:href="#maada94b5eb" x="152.320182" y="316.209959" style="stroke: #000000"/>
     <use xlink:href="#maada94b5eb" x="167.987239" y="316.205506" style="stroke: #000000"/>
     <use xlink:href="#maada94b5eb" x="183.654296" y="279.936985" style="stroke: #000000"/>
     <use xlink:href="#maada94b5eb" x="199.321353" y="288.963081" style="stroke: #000000"/>
     <use xlink:href="#maada94b5eb" x="214.988409" y="282.031338" style="stroke: #000000"/>
     <use xlink:href="#maada94b5eb" x="230.655466" y="290.608955" style="stroke: #000000"/>
     <use xlink:href="#maada94b5eb" x="246.322523" y="220.426891" style="stroke: #000000"/>
     <use xlink:href="#maada94b5eb" x="261.989579" y="241.201624" style="stroke: #000000"/>
     <use xlink:href="#maada94b5eb" x="277.656636" y="228.079482" style="stroke: #000000"/>
     <use xlink:href="#maada94b5eb" x="293.323693" y="241.420648" style="stroke: #000000"/>
     <use xlink:href="#maada94b5eb" x="308.990749" y="201.499424" style="stroke: #000000"/>
     <use xlink:href="#maada94b5eb" x="324.657806" y="202.195404" style="stroke: #000000"/>
     <use xlink:href="#maada94b5eb" x="340.324863" y="312.47368" style="stroke: #000000"/>
     <use xlink:href="#maada94b5eb" x="355.991919" y="311.246592" style="stroke: #000000"/>
     <use xlink:href="#maada94b5eb" x="371.658976" y="308.798195" style="stroke: #000000"/>
    </g>
   </g>
   <g id="patch_63">
    <path d="M 44.57 317.72 
L 44.57 10.8 
" style="fill: none; stroke: #000000; stroke-width: 0.8; stroke-linejoin: miter; stroke-linecap: square"/>
   </g>
   <g id="patch_64">
    <path d="M 412.785 317.72 
L 412.785 10.8 
" style="fill: none; stroke: #000000; stroke-width: 0.8; stroke-linejoin: miter; stroke-linecap: square"/>
   </g>
   <g id="patch_65">
    <path d="M 44.57 317.72 
L 412.785 317.72 
" style="fill: none; stroke: #000000; stroke-width: 0.8; stroke-linejoin: miter; stroke-linecap: square"/>
   </g>
   <g id="patch_66">
    <path d="M 44.57 10.8 
L 412.785 10.8 
" style="fill: none; stroke: #000000; stroke-width: 0.8; stroke-linejoin: miter; stroke-linecap: square"/>
   </g>
   <g id="legend_1">
    <g id="patch_67">
     <path d="M 354.917813 62.834375 
L 405.785 62.834375 
Q 407.785 62.834375 407.785 60.834375 
L 407.785 17.8 
Q 407.785 15.8 405.785 15.8 
L 354.917813 15.8 
Q 352.917813 15.8 352.917813 17.8 
L 352.917813 60.834375 
Q 352.917813 62.834375 354.917813 62.834375 
z
" style="fill: #ffffff; opacity: 0.8; stroke: #cccccc; stroke-linejoin: miter"/>
    </g>
    <g id="patch_68">
     <path d="M 356.917813 27.398438 
L 376.917813 27.398438 
L 376.917813 20.398438 
L 356.917813 20.398438 
z
" style="fill: #0000ff"/>
    </g>
    <g id="text_29">
     <!-- avx -->
     <g transform="translate(384.917813 27.398438) scale(0.1 -0.1)">
      <use xlink:href="#DejaVuSans-61"/>
      <use xlink:href="#DejaVuSans-76" transform="translate(61.279297 0)"/>
      <use xlink:href="#DejaVuSans-78" transform="translate(120.458984 0)"/>
     </g>
    </g>
    <g id="patch_69">
     <path d="M 356.917813 42.076563 
L 376.917813 42.076563 
L 376.917813 35.076563 
L 356.917813 35.076563 
z
" style="fill: #ffa500"/>
    </g>
    <g id="text_30">
     <!-- glm -->
     <g transform="translate(384.917813 42.076563) scale(0.1 -0.1)">
      <use xlink:href="#DejaVuSans-67"/>
      <use xlink:href="#DejaVuSans-6c" transform="translate(63.476562 0)"/>
      <use xlink:href="#DejaVuSans-6d" transform="translate(91.259766 0)"/>
     </g>
    </g>
    <g id="patch_70">
     <path d="M 356.917813 56.754687 
L 376.917813 56.754687 
L 376.917813 49.754687 
L 356.917813 49.754687 
z
" style="fill: #008000"/>
    </g>
    <g id="text_31">
     <!-- seq -->
     <g transform="translate(384.917813 56.754687) scale(0.1 -0.1)">
      <use xlink:href="#DejaVuSans-73"/>
      <use xlink:href="#DejaVuSans-65" transform="translate(52.099609 0)"/>
      <use xlink:href="#DejaVuSans-71" transform="translate(113.623047 0)"/>
     </g>
    </g>
   </g>
  </g>
 </g>
 <defs>
  <clipPath id="p5d85ec5d68">
   <rect x="44.57" y="10.8" width="368.215" height="306.92"/>
  </clipPath>
 </defs>
</svg>
